<?xml version="1.0" encoding="UTF-8"?>
<svg version="1.1" xmlns="http://www.w3.org/2000/svg" width="604" height="123">
<path d="M0 0 C2.41197731 -0.00322965 4.82395445 -0.00659485 7.2359314 -0.01008606 C12.26308647 -0.01602291 17.29022449 -0.0179318 22.31738281 -0.01733398 C27.38805737 -0.01725304 32.45864096 -0.02415349 37.52929688 -0.0378418 C69.67845969 -0.12333995 101.62227568 0.21087943 133.6673584 2.95545959 C137.49283246 3.26009672 141.31842068 3.4406173 145.15234375 3.59765625 C146.74905716 3.66900848 148.34573599 3.7411379 149.94238281 3.81396484 C150.75372681 3.85092468 151.5650708 3.88788452 152.40100098 3.92596436 C175.92907866 5.02825002 175.92907866 5.02825002 186.0859375 6.54296875 C187.19884155 6.69548096 187.19884155 6.69548096 188.33422852 6.85107422 C190.3203125 7.19140625 190.3203125 7.19140625 193.3359375 8.16796875 C194.6640625 10.1953125 194.6640625 10.1953125 195.3359375 12.16796875 C197.28614833 13.39324823 197.28614833 13.39324823 199.3359375 14.16796875 C199.9959375 14.49796875 200.6559375 14.82796875 201.3359375 15.16796875 C201.3359375 15.82796875 201.3359375 16.48796875 201.3359375 17.16796875 C195.02659189 18.20361221 189.36558655 18.03448981 183.0234375 17.35546875 C181.71342773 17.23075195 181.71342773 17.23075195 180.37695312 17.10351562 C175.92571467 16.65478886 171.5953621 16.03810937 167.21484375 15.12890625 C159.73493123 13.71321472 152.1724844 13.74067287 144.5859375 13.60546875 C142.37789643 13.56117238 140.16997985 13.51426669 137.96209717 13.46266174 C135.96996775 13.41678902 133.97765871 13.37891793 131.98535156 13.34155273 C128.3359375 13.16796875 128.3359375 13.16796875 125.12405396 12.68974304 C121.10995031 12.13684133 117.11943826 11.85180972 113.07666016 11.64599609 C112.28502346 11.60393665 111.49338676 11.56187721 110.67776108 11.51854324 C108.07707853 11.38331735 105.47614245 11.25496555 102.875 11.12890625 C101.9708498 11.08477978 101.0666996 11.04065331 100.13515091 10.99518967 C81.19038052 10.0878909 62.26866334 9.77063295 43.30394745 9.79040909 C40.65129728 9.79302762 37.99865945 9.79234015 35.3460083 9.79159546 C8.09604567 9.80039315 -19.07703841 10.56097304 -46.2890625 11.98046875 C-47.09539375 12.02206367 -47.90172501 12.0636586 -48.73249054 12.10651398 C-70.21004823 13.21950229 -91.6105385 14.86008239 -113.02453613 16.83786011 C-117.98118051 17.28743266 -122.94061173 17.69320455 -127.90234375 18.08203125 C-128.68683899 18.14398178 -129.47133423 18.20593231 -130.27960205 18.26976013 C-133.30168932 18.50752985 -136.32396947 18.74268137 -139.34643555 18.97558594 C-141.65694888 19.15431796 -143.96715292 19.33668495 -146.27734375 19.51953125 C-147.58485596 19.62088379 -148.89236816 19.72223633 -150.23950195 19.82666016 C-153.11950795 20.11369576 -155.8369428 20.57728197 -158.6640625 21.16796875 C-161.27012948 21.32143398 -163.86862005 21.44285301 -166.4765625 21.54296875 C-174.90771854 21.9358685 -183.2092339 22.91555622 -191.57446289 24.01123047 C-198.01360143 24.84972614 -204.4472941 25.58025214 -210.9140625 26.16796875 C-219.27621032 26.93088529 -227.62725737 27.77490315 -235.9765625 28.66796875 C-237.17474609 28.79598877 -238.37292969 28.92400879 -239.60742188 29.0559082 C-247.20965125 29.87787033 -254.79364922 30.78215333 -262.3671875 31.8359375 C-272.6141397 32.86791728 -272.6141397 32.86791728 -276.6640625 30.16796875 C-276.9765625 27.66796875 -276.9765625 27.66796875 -276.6640625 25.16796875 C-274.28864301 22.79254926 -273.33509374 22.7557604 -270.07421875 22.2734375 C-269.08317139 22.12503418 -268.09212402 21.97663086 -267.07104492 21.82373047 C-265.96736572 21.6692041 -264.86368652 21.51467773 -263.7265625 21.35546875 C-262.56809814 21.18805176 -261.40963379 21.02063477 -260.21606445 20.84814453 C-246.78129112 18.95926964 -233.29952866 17.43635365 -219.81860352 15.91870117 C-218.04180498 15.71815271 -216.26503036 15.51739216 -214.48828125 15.31640625 C-213.63403564 15.21985748 -212.77979004 15.12330872 -211.8996582 15.02383423 C-205.74799952 14.31815972 -199.63133308 13.46048671 -193.50561523 12.55664062 C-190.103884 12.09134669 -186.78183854 11.86348768 -183.3515625 11.73046875 C-177.91941041 11.45799932 -172.56619906 10.93770292 -167.17358398 10.23217773 C-135.78699897 6.13319333 -104.0605277 4.32907892 -72.4765625 2.48046875 C-71.44130432 2.41980225 -70.40604614 2.35913574 -69.3394165 2.29663086 C-66.32930103 2.12190152 -63.31901439 1.95063521 -60.30859375 1.78125 C-59.47047653 1.7334993 -58.63235931 1.6857486 -57.7688446 1.6365509 C-54.73438413 1.46984262 -51.69939006 1.31814402 -48.6640625 1.16796875 C-47.89125443 1.1279027 -47.11844635 1.08783665 -46.32221985 1.04655647 C-30.87533089 0.25524222 -15.46553915 0.00498784 0 0 Z " fill="#D62A2F" transform="translate(303.6640625,84.83203125)"/>
<path d="M0 0 C1.54300781 -0.03867187 1.54300781 -0.03867187 3.1171875 -0.078125 C6.60285684 0.30212984 8.40262035 1.04985304 11.125 3.25 C12.05078125 5.51171875 12.05078125 5.51171875 12.4375 7.9375 C12.57800781 8.74574219 12.71851563 9.55398437 12.86328125 10.38671875 C12.94964844 11.00160156 13.03601563 11.61648437 13.125 12.25 C12.465 12.25 11.805 12.25 11.125 12.25 C11.125 13.24 11.125 14.23 11.125 15.25 C12.115 15.25 13.105 15.25 14.125 15.25 C14.10179687 14.50234375 14.07859375 13.7546875 14.0546875 12.984375 C14.03664063 11.99953125 14.01859375 11.0146875 14 10 C13.97679687 9.02546875 13.95359375 8.0509375 13.9296875 7.046875 C14.125 4.25 14.125 4.25 16.125 0.25 C19.095 0.58 22.065 0.91 25.125 1.25 C24.652114 4.63901631 24.16226905 8.02069576 23.61328125 11.3984375 C23.43152344 12.52507813 23.24976563 13.65171875 23.0625 14.8125 C22.88589844 15.88628906 22.70929688 16.96007812 22.52734375 18.06640625 C22.13550756 21.16685768 22.05459908 24.12889262 22.125 27.25 C23.115 27.25 24.105 27.25 25.125 27.25 C25.2178125 26.4146875 25.2178125 26.4146875 25.3125 25.5625 C26.4730769 22.25931958 28.52713446 20.53105267 31.125 18.25 C31.785 18.25 32.445 18.25 33.125 18.25 C33.125 12.64 33.125 7.03 33.125 1.25 C37.125 0.25 37.125 0.25 40.125 0.25 C40.125 1.24 40.125 2.23 40.125 3.25 C40.785 3.25 41.445 3.25 42.125 3.25 C42.62 7.21 42.62 7.21 43.125 11.25 C43.785 11.25 44.445 11.25 45.125 11.25 C45.125 7.95 45.125 4.65 45.125 1.25 C47.6 0.755 47.6 0.755 50.125 0.25 C50.125 0.91 50.125 1.57 50.125 2.25 C51.445 1.92 52.765 1.59 54.125 1.25 C54.06441406 1.80945313 54.00382812 2.36890625 53.94140625 2.9453125 C53.26646501 9.40398099 52.80079525 15.86193523 52.40625 22.34375 C52.125 25.25 52.125 25.25 51.125 27.25 C51.76566406 27.105625 52.40632813 26.96125 53.06640625 26.8125 C58.20540377 25.70964509 62.87195843 25.02160689 68.125 25.25 C68.125 25.91 68.125 26.57 68.125 27.25 C69.115 27.25 70.105 27.25 71.125 27.25 C71.063125 26.074375 71.00125 24.89875 70.9375 23.6875 C70.92553235 16.18378072 71.92831506 6.54502741 76.125 0.25 C90.90632118 0.66002278 90.90632118 0.66002278 97.125 5.25 C97.125 6.24 97.125 7.23 97.125 8.25 C98.115 8.25 99.105 8.25 100.125 8.25 C103.22835074 14.32739521 104.52313384 19.77913134 102.43359375 26.4609375 C99.39279587 33.30591348 94.58034366 35.77773886 87.8125 38.5 C82.66203651 40.29421884 78.54941324 40.68050899 73.125 40.25 C72.465 39.92 71.805 39.59 71.125 39.25 C70.5 36.6875 70.5 36.6875 70.125 34.25 C67.58093219 34.67602561 65.04037215 35.11537671 62.5 35.5625 C61.78714844 35.68044922 61.07429688 35.79839844 60.33984375 35.91992188 C55.79612423 36.73278913 52.23254779 38.05364505 48.125 40.25 C44.29005462 40.69592388 43.43477427 40.45651618 40.125 38.25 C40.125 38.91 40.125 39.57 40.125 40.25 C39.465 40.25 38.805 40.25 38.125 40.25 C38.125 40.91 38.125 41.57 38.125 42.25 C35.6875 41.5 35.6875 41.5 33.125 40.25 C32.3125 38.125 32.3125 38.125 32.125 36.25 C30.145 36.25 28.165 36.25 26.125 36.25 C26.125 36.91 26.125 37.57 26.125 38.25 C18.99144951 37.77442997 18.99144951 37.77442997 15.75 35.8125 C13.28436464 31.9243827 12.77889685 27.75844673 12.125 23.25 C11.77888672 24.15492187 11.77888672 24.15492187 11.42578125 25.078125 C9.41932757 29.99512611 7.83835462 33.3971801 3.125 36.25 C2.465 36.25 1.805 36.25 1.125 36.25 C1.125 36.91 1.125 37.57 1.125 38.25 C-2.35541856 39.99020928 -6.06967932 39.70464552 -9.875 39.25 C-14.12737443 37.68076814 -17.66293305 35.28376915 -19.875 31.25 C-19.875 30.26 -19.875 29.27 -19.875 28.25 C-20.535 28.25 -21.195 28.25 -21.875 28.25 C-22.56337568 18.57449735 -22.56337568 18.57449735 -20 14.625 C-19.29875 13.84125 -18.5975 13.0575 -17.875 12.25 C-17.215 12.25 -16.555 12.25 -15.875 12.25 C-15.875 11.59 -15.875 10.93 -15.875 10.25 C-15.215 10.25 -14.555 10.25 -13.875 10.25 C-13.875 9.59 -13.875 8.93 -13.875 8.25 C-13.215 8.25 -12.555 8.25 -11.875 8.25 C-11.875 7.59 -11.875 6.93 -11.875 6.25 C-11.215 6.25 -10.555 6.25 -9.875 6.25 C-9.545 4.6 -9.215 2.95 -8.875 1.25 C-5.71490467 0.19663489 -3.3196864 0.04967112 0 0 Z M-3.875 10.25 C-3.875 10.91 -3.875 11.57 -3.875 12.25 C-5.195 12.25 -6.515 12.25 -7.875 12.25 C-10.61801935 17.16191837 -12.76434694 21.49604109 -12.875 27.25 C-11.5839129 29.6712319 -11.5839129 29.6712319 -9.875 31.25 C-5.60676286 30.77575143 -3.70007269 28.29238597 -0.875 25.25 C-0.36453125 24.78078125 0.1459375 24.3115625 0.671875 23.828125 C3.79635662 20.43487077 5.03007973 15.76872434 5.3125 11.25 C5.250625 10.59 5.18875 9.93 5.125 9.25 C0.38423451 8.06301999 0.38423451 8.06301999 -3.875 10.25 Z M82.125 10.25 C80.539131 13.421738 80.74633555 16.88513822 80.5625 20.375 C80.51931641 21.12910156 80.47613281 21.88320313 80.43164062 22.66015625 C80.3255168 24.52321888 80.22474999 26.38658524 80.125 28.25 C87.92690002 27.6957186 87.92690002 27.6957186 93.875 23.125 C95.55228337 19.26724826 95.3377899 16.43486798 95.125 12.25 C88.80029155 9.25891492 88.80029155 9.25891492 82.125 10.25 Z " fill="#F6F7F6" transform="translate(275.875,26.75)"/>
<path d="M0 0 C2.83543366 0.06058619 5.66600145 0.14783391 8.5 0.25 C9.68722656 0.27126953 9.68722656 0.27126953 10.8984375 0.29296875 C18.94115591 0.62258836 25.06147976 3.55635645 31 9 C37.51522706 16.10752043 39.4728783 22.06836913 39.140625 31.65625 C39.09421875 32.4296875 39.0478125 33.203125 39 34 C39.556875 33.030625 40.11375 32.06125 40.6875 31.0625 C43 28 43 28 45.75 27.125 C46.4925 27.08375 47.235 27.0425 48 27 C48 26.34 48 25.68 48 25 C48.66 25 49.32 25 50 25 C50.185625 24.0409375 50.185625 24.0409375 50.375 23.0625 C50.58125 22.381875 50.7875 21.70125 51 21 C55.18165876 18.90917062 60.44634223 19.56603523 65 20 C68.29782458 21.2100383 70.29274038 23.07748746 72.4375 25.875 C73.38775404 29.46484861 72.64038522 32.71922957 71 36 C71.66 36 72.32 36 73 36 C72.23772374 42.09821006 69.1585387 48.46341233 65 53 C64.34 53 63.68 53 63 53 C63 53.66 63 54.32 63 55 C59.01083137 58.57649601 54.75925445 58.49958862 49.66015625 58.35546875 C44.94642743 57.72558722 42.28875513 55.42207462 39.1875 52 C36.50736704 47.48609185 36.91460338 43.12379695 37 38 C36.38125 38.99 35.7625 39.98 35.125 41 C34.073125 42.485 34.073125 42.485 33 44 C32.34 44 31.68 44 31 44 C30.67 44.99 30.34 45.98 30 47 C20.41975443 54.10720543 9.69513344 56.64972964 -2 56 C-2.99 56 -3.98 56 -5 56 C-5 55.34 -5 54.68 -5 54 C-5.99 54 -6.98 54 -8 54 C-7.79375 53.401875 -7.5875 52.80375 -7.375 52.1875 C-6.69328085 49.71549154 -6.69328085 49.71549154 -9 47 C-9.55898952 40.1803279 -8.3182482 34.18942593 -6.78515625 27.55078125 C-6.07265376 24.32856851 -5.53733764 21.13897403 -5.0625 17.875 C-4.08338037 11.66554047 -2.15207532 5.89208971 0 0 Z M9.76953125 14.41015625 C7.28046552 18.0530935 6.5512529 21.65314795 5.6875 25.9375 C5.50638672 26.73607422 5.32527344 27.53464844 5.13867188 28.35742188 C4.25032843 32.52952515 3.69218403 35.82342641 5 40 C15.67685659 39.39088079 15.67685659 39.39088079 24.3125 33.5625 C24.869375 32.716875 25.42625 31.87125 26 31 C26.4125 30.401875 26.825 29.80375 27.25 29.1875 C28.38938112 25.86430506 28.79339154 22.44251244 28 19 C25.13383131 15.25088835 22.58522494 14.27948824 18 13.5 C16.96875 13.3040625 15.9375 13.108125 14.875 12.90625 C11.96565259 12.75813944 11.96565259 12.75813944 9.76953125 14.41015625 Z M58 28 C57.67 28.99 57.34 29.98 57 31 C55.6078125 31.433125 55.6078125 31.433125 54.1875 31.875 C49.54287536 33.51427928 47.8592811 36.23847375 45.75 40.5625 C44.80394277 43.21214005 44.80394277 43.21214005 45 47 C45.66 47 46.32 47 47 47 C47.33 47.99 47.66 48.98 48 50 C53.5979256 49.36023707 56.50955638 46.66078003 60.1875 42.5625 C63.42455376 37.98597572 64.2604193 34.5990149 64 29 C61.03 28.505 61.03 28.505 58 28 Z " fill="#F8F8F8" transform="translate(436,15)"/>
<path d="M0 0 C1.97956441 0.14033111 3.95865141 0.2874123 5.9375 0.4375 C7.03964844 0.51871094 8.14179687 0.59992187 9.27734375 0.68359375 C12 1 12 1 13 2 C12.87046459 8.69598417 12.12015331 15.24696568 10.52734375 21.74609375 C9.95410209 24.19617107 9.52882592 26.64129193 9.125 29.125 C8.87556641 30.61 8.87556641 30.61 8.62109375 32.125 C8.10398112 35.35126244 7.627345 38.5788311 7.16015625 41.8125 C6.83654965 43.9167609 6.5123246 46.02092677 6.1875 48.125 C6.04650879 49.1577002 5.90551758 50.19040039 5.76025391 51.25439453 C5.6060498 52.22489746 5.4518457 53.19540039 5.29296875 54.1953125 C5.1643042 55.07203613 5.03563965 55.94875977 4.90307617 56.85205078 C4 59 4 59 1.55908203 60.28808594 C-0.88528437 60.96808712 -2.79003126 61.21050741 -5.3125 61.125 C-6.529375 61.08375 -7.74625 61.0425 -9 61 C-9.33 59.35 -9.66 57.7 -10 56 C-10.66 56 -11.32 56 -12 56 C-13.485 51.05 -13.485 51.05 -15 46 C-15.99 46 -16.98 46 -18 46 C-18.10957031 46.88042969 -18.21914063 47.76085937 -18.33203125 48.66796875 C-18.56986328 50.41013672 -18.56986328 50.41013672 -18.8125 52.1875 C-18.96332031 53.33605469 -19.11414063 54.48460937 -19.26953125 55.66796875 C-20.02489973 59.11358005 -20.77291717 61.26744443 -23 64 C-25.375 64.77734375 -25.375 64.77734375 -28 64.9375 C-28.86625 65.00839844 -29.7325 65.07929687 -30.625 65.15234375 C-33 65 -33 65 -36 63 C-38.31749919 60.02035819 -39.09074183 58.74105828 -38.625 54.9375 C-38.41875 53.968125 -38.2125 52.99875 -38 52 C-38.31566959 50.66237464 -38.65190415 49.32955563 -39 48 C-39.18847879 46.11763962 -39.33958491 44.23137154 -39.46484375 42.34375 C-39.54283203 41.23773438 -39.62082031 40.13171875 -39.70117188 38.9921875 C-39.85660105 36.69543249 -40.01029636 34.39855937 -40.16210938 32.1015625 C-40.63812738 25.39860977 -41.44064122 18.93155277 -42.79516602 12.34570312 C-42.86276123 11.57162109 -42.93035645 10.79753906 -43 10 C-42.34 9.34 -41.68 8.68 -41 8 C-39.68 8 -38.36 8 -37 8 C-37 8.99 -37 9.98 -37 11 C-36.34 11 -35.68 11 -35 11 C-35 10.34 -35 9.68 -35 9 C-34.01 9.33 -33.02 9.66 -32 10 C-30.30117812 18.41826913 -29.75088086 26.41922945 -30 35 C-29.34 35 -28.68 35 -28 35 C-28.495 33.515 -28.495 33.515 -29 32 C-27.59296743 27.87822224 -25.75895365 23.9898217 -24 20 C-19.71 20 -15.42 20 -11 20 C-10.01 22.64 -9.02 25.28 -8 28 C-6.08811014 25.13216521 -5.59771076 23.77987868 -5 20.5078125 C-4.835 19.63769531 -4.67 18.76757812 -4.5 17.87109375 C-4.335 16.96488281 -4.17 16.05867188 -4 15.125 C-2.01011122 4.28943377 -2.01011122 4.28943377 0 0 Z M-22 45 C-21 47 -21 47 -21 47 Z " fill="#F9F9F9" transform="translate(70,19)"/>
<path d="M0 0 C2.41197731 -0.00322965 4.82395445 -0.00659485 7.2359314 -0.01008606 C12.26308647 -0.01602291 17.29022449 -0.0179318 22.31738281 -0.01733398 C27.38805737 -0.01725304 32.45864096 -0.02415349 37.52929688 -0.0378418 C69.67216929 -0.12332322 101.6106397 0.20928752 133.64953613 2.95323181 C137.57437274 3.26696282 141.50043489 3.45984613 145.43359375 3.6328125 C147.07618673 3.71127824 148.71876445 3.79006383 150.36132812 3.86914062 C152.88406667 3.98859358 155.40683671 4.10584055 157.92993164 4.2175293 C167.19977186 4.63197953 176.25612306 5.08046477 185.3359375 7.16796875 C185.3359375 7.49796875 185.3359375 7.82796875 185.3359375 8.16796875 C181.18980936 8.0298385 177.04412588 7.88118016 172.8984375 7.73046875 C171.12243164 7.67149414 171.12243164 7.67149414 169.31054688 7.61132812 C168.18583984 7.56943359 167.06113281 7.52753906 165.90234375 7.484375 C164.86021729 7.44771729 163.81809082 7.41105957 162.74438477 7.37329102 C160.3359375 7.16796875 160.3359375 7.16796875 159.3359375 6.16796875 C156.53162387 5.94739185 153.74669465 5.78765219 150.9375 5.66796875 C150.0739389 5.62736328 149.21037781 5.58675781 148.32064819 5.54492188 C145.53426261 5.41482654 142.74763331 5.29122275 139.9609375 5.16796875 C137.25196995 5.0439087 134.54306645 4.9185164 131.83416748 4.79296875 C130.00710408 4.70866871 128.17999483 4.62535728 126.35284424 4.54296875 C122.21399568 4.35512694 118.07651644 4.15961608 113.94042969 3.91796875 C86.18264693 2.29983299 58.38409423 1.96107732 30.5859375 1.98046875 C29.81688835 1.98058834 29.0478392 1.98070793 28.25548553 1.98083115 C-1.41901492 1.98662353 -31.02480431 2.65034333 -60.6640625 4.16796875 C-62.31015503 4.25141541 -62.31015503 4.25141541 -63.98950195 4.33654785 C-102.81363667 5.56687083 -102.81363667 5.56687083 -141.23193359 10.70239258 C-144.64287052 11.35533945 -148.01939127 11.27347662 -151.4765625 11.23046875 C-152.16943359 11.22595703 -152.86230469 11.22144531 -153.57617188 11.21679688 C-155.27217318 11.20510031 -156.96812953 11.18716799 -158.6640625 11.16796875 C-158.6640625 11.82796875 -158.6640625 12.48796875 -158.6640625 13.16796875 C-156.3540625 13.49796875 -154.0440625 13.82796875 -151.6640625 14.16796875 C-151.6640625 15.15796875 -151.6640625 16.14796875 -151.6640625 17.16796875 C-150.48714844 17.03519531 -149.31023437 16.90242188 -148.09765625 16.765625 C-137.85511996 15.6535421 -127.67033511 14.9288916 -117.37451172 14.56494141 C-110.79055883 14.31327637 -104.27893664 13.78456304 -97.7265625 13.10546875 C-86.04102543 11.91258796 -74.39802647 11.96709763 -62.6640625 12.16796875 C-62.6640625 12.49796875 -62.6640625 12.82796875 -62.6640625 13.16796875 C-63.8809375 13.20535156 -65.0978125 13.24273437 -66.3515625 13.28125 C-78.86356662 13.7277152 -91.27900585 14.71426234 -103.73754883 15.9362793 C-116.3774285 17.17174637 -129.03109731 18.19155057 -141.69360352 19.16552734 C-143.1980812 19.2835061 -144.70255719 19.40150633 -146.20703125 19.51953125 C-146.88895538 19.57046936 -147.57087952 19.62140747 -148.27346802 19.67388916 C-151.80784297 19.95303469 -155.19690916 20.44214599 -158.6640625 21.16796875 C-161.27012948 21.32143398 -163.86862005 21.44285301 -166.4765625 21.54296875 C-174.90771854 21.9358685 -183.2092339 22.91555622 -191.57446289 24.01123047 C-198.01360143 24.84972614 -204.4472941 25.58025214 -210.9140625 26.16796875 C-219.27621032 26.93088529 -227.62725737 27.77490315 -235.9765625 28.66796875 C-237.17474609 28.79598877 -238.37292969 28.92400879 -239.60742188 29.0559082 C-247.20965125 29.87787033 -254.79364922 30.78215333 -262.3671875 31.8359375 C-272.6141397 32.86791728 -272.6141397 32.86791728 -276.6640625 30.16796875 C-276.9765625 27.66796875 -276.9765625 27.66796875 -276.6640625 25.16796875 C-274.28864301 22.79254926 -273.33509374 22.7557604 -270.07421875 22.2734375 C-269.08317139 22.12503418 -268.09212402 21.97663086 -267.07104492 21.82373047 C-265.96736572 21.6692041 -264.86368652 21.51467773 -263.7265625 21.35546875 C-262.56809814 21.18805176 -261.40963379 21.02063477 -260.21606445 20.84814453 C-246.78129112 18.95926964 -233.29952866 17.43635365 -219.81860352 15.91870117 C-218.04180498 15.71815271 -216.26503036 15.51739216 -214.48828125 15.31640625 C-213.63403564 15.21985748 -212.77979004 15.12330872 -211.8996582 15.02383423 C-205.74799952 14.31815972 -199.63133308 13.46048671 -193.50561523 12.55664062 C-190.103884 12.09134669 -186.78183854 11.86348768 -183.3515625 11.73046875 C-177.91941041 11.45799932 -172.56619906 10.93770292 -167.17358398 10.23217773 C-135.78699897 6.13319333 -104.0605277 4.32907892 -72.4765625 2.48046875 C-71.44130432 2.41980225 -70.40604614 2.35913574 -69.3394165 2.29663086 C-66.32930103 2.12190152 -63.31901439 1.95063521 -60.30859375 1.78125 C-59.47047653 1.7334993 -58.63235931 1.6857486 -57.7688446 1.6365509 C-54.73438413 1.46984262 -51.69939006 1.31814402 -48.6640625 1.16796875 C-47.89125443 1.1279027 -47.11844635 1.08783665 -46.32221985 1.04655647 C-30.87533089 0.25524222 -15.46553915 0.00498784 0 0 Z " fill="#E1383E" transform="translate(303.6640625,84.83203125)"/>
<path d="M0 0 C-0.33 1.32 -0.66 2.64 -1 4 C-17.83 4.99 -17.83 4.99 -35 6 C-30.02498413 5.75987183 -30.02498413 5.75987183 -24.94946289 5.51489258 C-12.90080342 4.97249944 -0.86801631 4.80442818 11.19140625 4.76171875 C12.25368565 4.75691624 13.31596504 4.75211372 14.41043472 4.74716568 C22.46111864 4.71139863 30.51174533 4.69565891 38.5625 4.6875 C39.7438364 4.68590755 40.92517281 4.68431511 42.14230728 4.68267441 C73.36687863 4.64694748 104.51351783 4.94489261 135.6875 6.8125 C136.40193897 6.85416164 137.11637794 6.89582329 137.85246658 6.93874741 C151.32892331 7.72577277 164.61262195 8.58680942 177.83520508 11.39575195 C182.26109748 12.24077885 186.51124267 12.3432487 191 12.1875 C191.78632813 12.17396484 192.57265625 12.16042969 193.3828125 12.14648438 C195.25553159 12.11222732 197.12788151 12.0585037 199 12 C195.03704496 7.70850982 192.91428569 6.34789916 187 6 C187 5.67 187 5.34 187 5 C189.64 5 192.28 5 195 5 C195.37125 5.928125 195.37125 5.928125 195.75 6.875 C197.22527877 9.3829739 198.34874952 9.92292949 201 11 C201.66 11.33 202.32 11.66 203 12 C203 12.66 203 13.32 203 14 C196.69065439 15.03564346 191.02964905 14.86652106 184.6875 14.1875 C183.37749023 14.0627832 183.37749023 14.0627832 182.04101562 13.93554688 C177.58977717 13.48682011 173.2594246 12.87014062 168.87890625 11.9609375 C161.39899373 10.54524597 153.8365469 10.57270412 146.25 10.4375 C144.04195893 10.39320363 141.83404235 10.34629794 139.62615967 10.29469299 C137.63403025 10.24882027 135.64172121 10.21094918 133.64941406 10.17358398 C130 10 130 10 126.78276062 9.52204895 C122.79901118 8.97226206 118.83861611 8.68225042 114.82641602 8.47363281 C114.04133352 8.43123726 113.25625103 8.38884171 112.44737816 8.34516144 C109.86230558 8.20886495 107.27696956 8.07976019 104.69140625 7.953125 C103.79199373 7.90875557 102.89258121 7.86438614 101.96591377 7.81867218 C83.04704812 6.90583164 64.15371021 6.68978578 45.21557617 6.73925781 C40.81466342 6.75065993 36.41399279 6.74385396 32.01308823 6.73236084 C9.45475404 6.68281583 -12.97497455 7.41266176 -35.49632168 8.66272354 C-44.37286906 9.14543863 -53.24985154 9.33983876 -62.13781738 9.46386719 C-75.53322974 9.65847048 -88.79441585 10.08306656 -102.12109375 11.52734375 C-108.77998111 12.23052446 -115.46598278 12.43300543 -122.15527344 12.65820312 C-127.14046752 12.8343838 -132.0364227 13.19192299 -136.98852539 13.78833008 C-139.68672686 14.0722651 -142.3512628 14.09681946 -145.0625 14.0625 C-146.00222656 14.05347656 -146.94195312 14.04445313 -147.91015625 14.03515625 C-148.59980469 14.02355469 -149.28945312 14.01195313 -150 14 C-150 13.01 -150 12.02 -150 11 C-150.598125 11.20625 -151.19625 11.4125 -151.8125 11.625 C-154 12 -154 12 -157 10 C-157 9.34 -157 8.68 -157 8 C-155.63681641 7.92652344 -155.63681641 7.92652344 -154.24609375 7.8515625 C-146.47637917 7.38936409 -138.83565095 6.64665057 -131.12304688 5.56054688 C-116.3227756 3.51966061 -101.46929461 2.30388151 -86.5625 1.375 C-85.51870178 1.30896576 -84.47490356 1.24293152 -83.3994751 1.17489624 C-55.61625849 -0.53279512 -27.82107734 -0.2950673 0 0 Z " fill="#E57277" transform="translate(302,88)"/>
<path d="M0 0 C1.63001953 0.02707031 1.63001953 0.02707031 3.29296875 0.0546875 C4.54013672 0.08949219 4.54013672 0.08949219 5.8125 0.125 C5.8125 0.785 5.8125 1.445 5.8125 2.125 C8.1225 2.455 10.4325 2.785 12.8125 3.125 C13.4725 5.435 14.1325 7.745 14.8125 10.125 C14.1525 10.125 13.4925 10.125 12.8125 10.125 C12.8125 10.785 12.8125 11.445 12.8125 12.125 C11.50925781 12.48851562 11.50925781 12.48851562 10.1796875 12.859375 C1.39430376 15.30439105 1.39430376 15.30439105 -6.1875 20.125 C-6.1875 20.785 -6.1875 21.445 -6.1875 22.125 C-5.1975 22.2178125 -5.1975 22.2178125 -4.1875 22.3125 C1.59418859 23.87837399 6.98957465 27.50563186 10.8125 32.125 C10.8125 32.785 10.8125 33.445 10.8125 34.125 C11.4725 34.125 12.1325 34.125 12.8125 34.125 C14.08329419 37.01316861 13.74879246 38.35009998 12.875 41.4375 C10.70654693 46.13919263 6.76169529 48.94719742 2.8125 52.125 C2.1525 52.785 1.4925 53.445 0.8125 54.125 C-0.5075 54.125 -1.8275 54.125 -3.1875 54.125 C-3.1875 55.115 -3.1875 56.105 -3.1875 57.125 C-13.6548913 60.95620205 -13.6548913 60.95620205 -17.1875 60.125 C-18.6875 57.9375 -18.6875 57.9375 -20.1875 55.125 C-21.095 54.3 -22.0025 53.475 -22.9375 52.625 C-23.68 51.8 -24.4225 50.975 -25.1875 50.125 C-24.828125 47.46875 -24.828125 47.46875 -24.1875 45.125 C-23.50945312 45.11082031 -22.83140625 45.09664062 -22.1328125 45.08203125 C-15.14887957 44.72412887 -8.83421031 43.50092423 -3.1875 39.125 C-1.88124264 36.5579723 -1.88124264 36.5579723 -1.1875 34.125 C-5.71588252 32.19624448 -9.38539028 30.99635549 -14.3125 30.75 C-19.51406724 30.34926292 -21.7265188 29.02969674 -25.1875 25.125 C-26.47621253 21.90321868 -26.34872082 20.60866246 -25.25 17.3125 C-24.899375 16.590625 -24.54875 15.86875 -24.1875 15.125 C-23.5275 15.125 -22.8675 15.125 -22.1875 15.125 C-21.96964844 14.38636719 -21.75179687 13.64773437 -21.52734375 12.88671875 C-19.84204781 9.41294548 -17.91603186 8.11125627 -14.75 5.9375 C-13.29787109 4.92623047 -13.29787109 4.92623047 -11.81640625 3.89453125 C-7.37127829 0.90249118 -5.3856851 -0.11582118 0 0 Z " fill="#F8F9F9" transform="translate(209.1875,12.875)"/>
<path d="M0 0 C1.01787598 -0.00056396 2.03575195 -0.00112793 3.08447266 -0.00170898 C21.89620581 0.27120581 21.89620581 0.27120581 27 5.375 C27.93355327 19.09348622 27.93355327 19.09348622 24.08984375 23.62890625 C21.44600515 25.23364505 18.91211295 26.33523886 16 27.375 C14.51306641 27.98214844 14.51306641 27.98214844 12.99609375 28.6015625 C5.91156463 31.375 5.91156463 31.375 2 31.375 C1.34 33.685 0.68 35.995 0 38.375 C-1.58294782 38.42937607 -3.16644256 38.46796271 -4.75 38.5 C-5.63171875 38.52320313 -6.5134375 38.54640625 -7.421875 38.5703125 C-10.14240885 38.36421145 -11.6549739 37.70923899 -14 36.375 C-15.3242287 36.00715869 -16.65613912 35.66297019 -18 35.375 C-17.67 34.055 -17.34 32.735 -17 31.375 C-15.02 31.375 -13.04 31.375 -11 31.375 C-10.979375 30.323125 -10.95875 29.27125 -10.9375 28.1875 C-9.84058966 23.72673128 -8.74007586 22.61038276 -4.98046875 20.24609375 C-1.9059742 18.89380127 0.71138301 18.98810388 4 19.375 C4.66 19.705 5.32 20.035 6 20.375 C8.60931266 19.48136395 8.60931266 19.48136395 11 18.375 C8.60490662 15.47567643 6.68754757 14.87331724 3 14.375 C3 15.035 3 15.695 3 16.375 C2.01 16.375 1.02 16.375 0 16.375 C0 15.715 0 15.055 0 14.375 C-0.65226563 14.64054687 -1.30453125 14.90609375 -1.9765625 15.1796875 C-6.61383043 17.05374563 -11.23124302 18.85766823 -16 20.375 C-17.010625 20.766875 -18.02125 21.15875 -19.0625 21.5625 C-22.19748285 22.42962292 -23.91657035 22.28189107 -27 21.375 C-28.26438344 16.45795331 -27.58345001 13.12535002 -26 8.375 C-25.4225 8.25125 -24.845 8.1275 -24.25 8 C-21.72509459 7.50194638 -21.72509459 7.50194638 -19.625 4.9375 C-14.08529643 -0.47030587 -7.31321437 -0.01010934 0 0 Z " fill="#F7F8F7" transform="translate(538,22.625)"/>
<path d="M0 0 C0.30292969 1.04800781 0.60585937 2.09601562 0.91796875 3.17578125 C1.34017409 4.55498535 1.76340529 5.9338757 2.1875 7.3125 C2.48237305 8.34793945 2.48237305 8.34793945 2.78320312 9.40429688 C3.88680906 12.91885732 4.56693109 14.70981222 7.67578125 16.79296875 C8.44277344 17.19128906 9.20976562 17.58960937 10 18 C10 18.99 10 19.98 10 21 C9.01 21.495 9.01 21.495 8 22 C8.495 33.385 8.495 33.385 9 45 C6.525 45.495 6.525 45.495 4 46 C3.34 44.02 2.68 42.04 2 40 C1.34 40 0.68 40 0 40 C-3 31.2 -3 31.2 -3 28 C-7.43784776 29.27066581 -11.04150858 30.39496713 -13.48828125 34.4921875 C-14.45539289 36.97502684 -15.29869567 39.43018552 -16 42 C-18.31 41.67 -20.62 41.34 -23 41 C-23.2236337 39.58566794 -23.42826476 38.16832382 -23.625 36.75 C-23.74101563 35.96109375 -23.85703125 35.1721875 -23.9765625 34.359375 C-24.00394632 31.60273682 -23.2498162 30.42693616 -22 28 C-21.4915115 26.58834542 -21.01341594 25.16545991 -20.5625 23.734375 C-20.30726562 22.92613281 -20.05203125 22.11789063 -19.7890625 21.28515625 C-19.39847656 20.03025391 -19.39847656 20.03025391 -19 18.75 C-18.60941406 17.51830078 -18.60941406 17.51830078 -18.2109375 16.26171875 C-16.98529275 12.35574989 -15.86441501 8.48541302 -14.9765625 4.48828125 C-14 1 -14 1 -11.375 -0.5625 C-7.28672919 -1.09246103 -4.057377 -0.69954776 0 0 Z M-7 14 C-7.66 15.98 -8.32 17.96 -9 20 C-7.68 19.34 -6.36 18.68 -5 18 C-5.66 16.68 -6.32 15.36 -7 14 Z " fill="#F7F7F7" transform="translate(133,33)"/>
<path d="M0 0 C2.475 0.495 2.475 0.495 5 1 C5 1.66 5 2.32 5 3 C5.99 3 6.98 3 8 3 C7.58866701 9.90606442 7.04038787 16.62107562 5.53125 23.37890625 C4.6713922 27.62129287 4.18742528 31.91990479 3.66015625 36.21484375 C2.96502738 39.14754722 2.46082822 40.29727534 0 42 C-4.42105263 41.57894737 -4.42105263 41.57894737 -6 40 C-5.93552434 37.87230338 -5.79828808 35.74660817 -5.625 33.625 C-5.53476563 32.46226563 -5.44453125 31.29953125 -5.3515625 30.1015625 C-5 27 -5 27 -4 24 C-6.97 24.33 -9.94 24.66 -13 25 C-13.66 29.62 -14.32 34.24 -15 39 C-16.65 39 -18.3 39 -20 39 C-20.495 37.515 -20.495 37.515 -21 36 C-21.99 35.67 -22.98 35.34 -24 35 C-24.25288577 28.18839932 -23.28866311 21.87836235 -22.0625 15.1875 C-21.88009766 14.15173828 -21.69769531 13.11597656 -21.50976562 12.04882812 C-20.15420387 4.46261161 -20.15420387 4.46261161 -19 1 C-13.25 1.875 -13.25 1.875 -11 3 C-11.33 7.29 -11.66 11.58 -12 16 C-11.34 15.67 -10.68 15.34 -10 15 C-7.3276379 14.86584528 -4.67749512 14.95681459 -2 15 C-1.90912109 14.12988281 -1.90912109 14.12988281 -1.81640625 13.2421875 C-1.33983439 8.79907137 -0.78991334 4.40094577 0 0 Z " fill="#F7F7F7" transform="translate(247,27)"/>
<path d="M0 0 C1.2065625 0.0309375 1.2065625 0.0309375 2.4375 0.0625 C2.4375 0.7225 2.4375 1.3825 2.4375 2.0625 C3.4275 2.0625 4.4175 2.0625 5.4375 2.0625 C5.81577359 15.35811614 5.20667681 28.02010765 2.4375 41.0625 C2.1075 41.3925 1.7775 41.7225 1.4375 42.0625 C-1.25332872 41.88614548 -3.89101446 41.44414079 -6.5625 41.0625 C-6.68286664 35.28490116 -6.3945582 29.78290011 -5.5625 24.0625 C-9.5225 24.5575 -9.5225 24.5575 -13.5625 25.0625 C-14.2225 30.0125 -14.8825 34.9625 -15.5625 40.0625 C-17.5425 39.7325 -19.5225 39.4025 -21.5625 39.0625 C-24.0229332 35.37185021 -23.74009395 33.73100291 -23.57421875 29.34765625 C-23.55156448 28.69550644 -23.52891022 28.04335663 -23.50556946 27.3714447 C-23.45567094 25.9936173 -23.40071545 24.61596503 -23.34106445 23.23852539 C-23.25049547 21.13649945 -23.17565006 19.03437179 -23.10351562 16.93164062 C-22.6827349 5.76347102 -22.6827349 5.76347102 -21.5625 2.0625 C-19.9125 2.0625 -18.2625 2.0625 -16.5625 2.0625 C-16.5625 2.7225 -16.5625 3.3825 -16.5625 4.0625 C-15.5725 4.0625 -14.5825 4.0625 -13.5625 4.0625 C-13.5625 8.3525 -13.5625 12.6425 -13.5625 17.0625 C-10.2625 16.4025 -6.9625 15.7425 -3.5625 15.0625 C-3.57410156 14.06347656 -3.58570312 13.06445312 -3.59765625 12.03515625 C-3.60667969 10.74480469 -3.61570312 9.45445313 -3.625 8.125 C-3.63660156 6.83722656 -3.64820312 5.54945312 -3.66015625 4.22265625 C-3.53232863 0.08615436 -3.53232863 0.08615436 0 0 Z " fill="#F6F6F6" transform="translate(104.5625,35.9375)"/>
<path d="M0 0 C1.60332791 -0.08121924 3.20784026 -0.13929134 4.8125 -0.1875 C6.15248047 -0.23970703 6.15248047 -0.23970703 7.51953125 -0.29296875 C10 0 10 0 11.88671875 1.07421875 C13.69567534 4.2033963 12.75551459 6.54220298 12 10 C11.44202072 12.07792101 10.84638437 14.14119198 10.23608398 16.2043457 C7.49655416 25.54098902 6.23353056 34.5358156 5.80883789 44.2578125 C5.48254965 50.08111593 4.76494123 53.47752532 1 58 C-1.31 57.67 -3.62 57.34 -6 57 C-6.2165625 55.4221875 -6.2165625 55.4221875 -6.4375 53.8125 C-6.88816672 50.2481255 -6.88816672 50.2481255 -7.5859375 47.8203125 C-8.17503537 43.80777792 -7.66855636 40.07130304 -7.1875 36.0625 C-7.10435547 35.27681641 -7.02121094 34.49113281 -6.93554688 33.68164062 C-6.42408354 29.22033634 -5.6076211 25.22594071 -4 21 C-3.34 21 -2.68 21 -2 21 C-2.04125 19.72125 -2.0825 18.4425 -2.125 17.125 C-2.13932721 12.60476416 -1.42887154 8.46561747 -0.4375 4.06640625 C0.06904293 2.02593083 0.06904293 2.02593083 0 0 Z " fill="#F9F9F9" transform="translate(402,14)"/>
<path d="M0 0 C0 1.32 0 2.64 0 4 C-3.85786966 5.81546807 -6.76705996 6.09380477 -11 6 C-11.04898438 6.78761719 -11.09796875 7.57523438 -11.1484375 8.38671875 C-11.55229842 14.27055457 -12.1090445 20.05283559 -13.0625 25.875 C-14.08561371 32.21219684 -14.53015575 37.68810753 -13 44 C-18.625 45.125 -18.625 45.125 -22 44 C-22.36504603 42.41913952 -22.71660506 40.83516093 -23.0625 39.25 C-23.25972656 38.36828125 -23.45695313 37.4865625 -23.66015625 36.578125 C-24.00806514 33.93881615 -23.69955066 32.5223235 -23 30 C-22.98097804 28.24997937 -23.00502694 26.49918006 -23.0625 24.75 C-23.12240654 19.79106934 -22.4295231 15.73529527 -21 11 C-21.88751953 11.05220703 -21.88751953 11.05220703 -22.79296875 11.10546875 C-31.24136963 11.39489194 -31.24136963 11.39489194 -35 8 C-35 6.68 -35 5.36 -35 4 C-26.03043423 -1.97971051 -10.50529523 -0.25145653 0 0 Z " fill="#F6F7F6" transform="translate(172,31)"/>
<path d="M0 0 C0.96217438 0.0195575 1.92434875 0.03911499 2.91567993 0.05926514 C5.65747647 0.11633519 8.39903118 0.18006714 11.140625 0.24609375 C12.38071571 0.2711776 12.38071571 0.2711776 13.64585876 0.29676819 C16.91281191 0.38226836 19.6304964 0.52266547 22.75 1.5625 C24.59466442 1.71139747 26.44357275 1.8104101 28.29296875 1.87890625 C29.90268555 1.94174805 29.90268555 1.94174805 31.54492188 2.00585938 C32.66447266 2.04517578 33.78402344 2.08449219 34.9375 2.125 C36.06865234 2.16818359 37.19980469 2.21136719 38.36523438 2.25585938 C41.16003354 2.36199099 43.95492162 2.46404385 46.75 2.5625 C46.09 2.8925 45.43 3.2225 44.75 3.5625 C44.75 4.2225 44.75 4.8825 44.75 5.5625 C17.51610047 5.71659153 -9.70694919 5.45771328 -36.9375 5.0625 C-38.17373108 5.04456327 -38.17373108 5.04456327 -39.43493652 5.02626419 C-49.70670293 4.87675923 -59.97838457 4.72205111 -70.25 4.5625 C-70.25 3.2425 -70.25 1.9225 -70.25 0.5625 C-46.95075918 -1.55217988 -23.35810477 -0.50409497 0 0 Z " fill="#E81C24" transform="translate(379.25,87.4375)"/>
<path d="M0 0 C2.41197731 -0.00322965 4.82395445 -0.00659485 7.2359314 -0.01008606 C12.26308647 -0.01602291 17.29022449 -0.0179318 22.31738281 -0.01733398 C27.38805737 -0.01725304 32.45864096 -0.02415349 37.52929688 -0.0378418 C69.67216929 -0.12332322 101.6106397 0.20928752 133.64953613 2.95323181 C137.57437274 3.26696282 141.50043489 3.45984613 145.43359375 3.6328125 C147.07618673 3.71127824 148.71876445 3.79006383 150.36132812 3.86914062 C152.88406667 3.98859358 155.40683671 4.10584055 157.92993164 4.2175293 C167.19977186 4.63197953 176.25612306 5.08046477 185.3359375 7.16796875 C185.3359375 7.49796875 185.3359375 7.82796875 185.3359375 8.16796875 C181.18980936 8.0298385 177.04412588 7.88118016 172.8984375 7.73046875 C171.12243164 7.67149414 171.12243164 7.67149414 169.31054688 7.61132812 C168.18583984 7.56943359 167.06113281 7.52753906 165.90234375 7.484375 C164.86021729 7.44771729 163.81809082 7.41105957 162.74438477 7.37329102 C160.3359375 7.16796875 160.3359375 7.16796875 159.3359375 6.16796875 C156.53162387 5.94739185 153.74669465 5.78765219 150.9375 5.66796875 C150.0739389 5.62736328 149.21037781 5.58675781 148.32064819 5.54492188 C145.53426261 5.41482654 142.74763331 5.29122275 139.9609375 5.16796875 C137.25196995 5.0439087 134.54306645 4.9185164 131.83416748 4.79296875 C130.00710408 4.70866871 128.17999483 4.62535728 126.35284424 4.54296875 C122.21399568 4.35512694 118.07651644 4.15961608 113.94042969 3.91796875 C86.18264693 2.29983299 58.38409423 1.96107732 30.5859375 1.98046875 C29.81688835 1.98058834 29.0478392 1.98070793 28.25548553 1.98083115 C-10.53290603 1.98840253 -49.19212032 3.40711655 -87.9140625 5.66796875 C-89.45885284 5.75747299 -89.45885284 5.75747299 -91.03485107 5.8487854 C-101.4975735 6.46459401 -111.90475538 7.22728013 -122.31422424 8.45603943 C-129.6464363 9.31305526 -136.98174424 9.79695003 -144.3515625 10.23046875 C-146.91797851 10.38786172 -149.48438479 10.54541349 -152.05078125 10.703125 C-153.29134277 10.77805176 -154.5319043 10.85297852 -155.81005859 10.93017578 C-162.09638622 11.31804371 -168.38018894 11.7423321 -174.6640625 12.16796875 C-174.6640625 11.83796875 -174.6640625 11.50796875 -174.6640625 11.16796875 C-140.8162293 6.4649014 -106.57059449 4.47599319 -72.4765625 2.48046875 C-71.44130432 2.41980225 -70.40604614 2.35913574 -69.3394165 2.29663086 C-66.32930103 2.12190152 -63.31901439 1.95063521 -60.30859375 1.78125 C-59.47047653 1.7334993 -58.63235931 1.6857486 -57.7688446 1.6365509 C-54.73438413 1.46984262 -51.69939006 1.31814402 -48.6640625 1.16796875 C-47.89125443 1.1279027 -47.11844635 1.08783665 -46.32221985 1.04655647 C-30.87533089 0.25524222 -15.46553915 0.00498784 0 0 Z " fill="#F1DEDF" transform="translate(303.6640625,84.83203125)"/>
<path d="M0 0 C-0.474375 0.433125 -0.94875 0.86625 -1.4375 1.3125 C-3.23686957 3.02309613 -3.23686957 3.02309613 -4 6 C-5.12535156 6.10957031 -6.25070313 6.21914062 -7.41015625 6.33203125 C-14.79471608 7.08368986 -22.05139956 7.91062579 -29.3125 9.5 C-42.95206699 12.38613824 -57.07187576 13.46513216 -71 13 C-71.625 11.125 -71.625 11.125 -72 9 C-69.51803314 6.51803314 -68.24990159 6.53180511 -64.8125 6.03515625 C-63.73403809 5.8762793 -62.65557617 5.71740234 -61.54443359 5.55371094 C-59.78993896 5.31056152 -59.78993896 5.31056152 -58 5.0625 C-56.79553223 4.89137695 -55.59106445 4.72025391 -54.35009766 4.54394531 C-50.56853414 4.01491064 -46.78499692 3.50385017 -43 3 C-41.82920898 2.84321777 -40.65841797 2.68643555 -39.45214844 2.52490234 C-26.25387896 0.79006857 -13.31792181 -0.50081322 0 0 Z " fill="#E52027" transform="translate(100,102)"/>
<path d="M0 0 C0 0.33 0 0.66 0 1 C-1.60875 0.938125 -1.60875 0.938125 -3.25 0.875 C-6.9164965 0.99721655 -7.92068459 1.40989479 -11 3 C-18.00206544 4.90901145 -25.22778503 5.53664868 -32.4375 6.125 C-33.39720703 6.21136719 -34.35691406 6.29773438 -35.34570312 6.38671875 C-41.9109681 6.94377154 -48.41282582 7.10132877 -55 7 C-55 6.01 -55 5.02 -55 4 C-55.8971875 4.309375 -55.8971875 4.309375 -56.8125 4.625 C-59 5 -59 5 -62 3 C-62 2.34 -62 1.68 -62 1 C-60.46279297 0.90912109 -60.46279297 0.90912109 -58.89453125 0.81640625 C-57.53384305 0.73194974 -56.17316657 0.64730433 -54.8125 0.5625 C-54.13896484 0.52318359 -53.46542969 0.48386719 -52.77148438 0.44335938 C-50.03475062 0.2698104 -47.37333131 0.08079705 -44.68969727 -0.5 C-41.50258108 -1.09246745 -38.43568188 -1.21625898 -35.1953125 -1.31640625 C-33.23658203 -1.37924805 -33.23658203 -1.37924805 -31.23828125 -1.44335938 C-30.5623291 -1.46293701 -29.88637695 -1.48251465 -29.18994141 -1.50268555 C-27.1381966 -1.56211774 -25.08669322 -1.62717283 -23.03515625 -1.69335938 C-4.66819741 -2.26336844 -4.66819741 -2.26336844 0 0 Z " fill="#E81D23" transform="translate(207,95)"/>
<path d="M0 0 C4.08327061 -0.0590068 8.16642882 -0.09392935 12.25 -0.125 C13.38953125 -0.14175781 14.5290625 -0.15851563 15.703125 -0.17578125 C31.57154599 -0.26594273 31.57154599 -0.26594273 38 2 C39.19628906 3.99951172 39.19628906 3.99951172 40 6 C42.0335948 7.26804566 42.0335948 7.26804566 44 8 C44 8.33 44 8.66 44 9 C33.21356622 9.31655838 23.25429055 8.99404349 12.69140625 6.734375 C7.48748593 5.69909773 2.29127452 5.29061924 -3 5 C-2.67 4.34 -2.34 3.68 -2 3 C-1.34 3 -0.68 3 0 3 C0 2.01 0 1.02 0 0 Z " fill="#D82A31" transform="translate(458,92)"/>
<path d="M0 0 C1.22763565 0.00212242 1.22763565 0.00212242 2.48007202 0.00428772 C5.09873075 0.00989335 7.71730454 0.02244677 10.3359375 0.03515625 C12.10937377 0.04017053 13.88281137 0.04473356 15.65625 0.04882812 C20.00784532 0.05986461 24.359377 0.077133 28.7109375 0.09765625 C29.2059375 1.08765625 29.2059375 1.08765625 29.7109375 2.09765625 C27.7309375 2.09765625 25.7509375 2.09765625 23.7109375 2.09765625 C23.7109375 3.08765625 23.7109375 4.07765625 23.7109375 5.09765625 C20.40596695 7.30096995 19.65489934 7.31766451 15.85546875 7.14453125 C14.85499512 7.10320068 13.85452148 7.06187012 12.82373047 7.01928711 C11.73463379 6.96264893 10.64553711 6.90601074 9.5234375 6.84765625 C7.83565186 6.77140015 7.83565186 6.77140015 6.11376953 6.69360352 C-8.3632184 6.00820339 -22.8281892 5.05826541 -37.2890625 4.09765625 C-37.2890625 3.76765625 -37.2890625 3.43765625 -37.2890625 3.09765625 C-28.3790625 3.09765625 -19.4690625 3.09765625 -10.2890625 3.09765625 C-10.2890625 2.43765625 -10.2890625 1.77765625 -10.2890625 1.09765625 C-7.06302705 -0.51536148 -3.54196212 -0.02287974 0 0 Z " fill="#E2242D" transform="translate(434.2890625,89.90234375)"/>
<path d="M0 0 C0 0.66 0 1.32 0 2 C0.66 2 1.32 2 2 2 C0.68559456 6.05275012 -0.66268698 7.49701524 -4 10 C-4.72159424 11.64363134 -5.39351421 13.31050386 -6 15 C-8 17 -8 17 -9.875 17.23046875 C-10.57625 17.21628906 -11.2775 17.20210937 -12 17.1875 C-12.70125 17.18105469 -13.4025 17.17460938 -14.125 17.16796875 C-16 17 -16 17 -18 16 C-17.7215625 15.1028125 -17.7215625 15.1028125 -17.4375 14.1875 C-16.77906313 11.83591238 -16.77906313 11.83591238 -18 9 C-17.5 5.4375 -17.5 5.4375 -16 2 C-10.84647199 -0.41900294 -5.58050257 -0.22777562 0 0 Z " fill="#F7F8F7" transform="translate(539,65)"/>
<path d="M0 0 C0 0.33 0 0.66 0 1 C-1.10698242 1.13575439 -2.21396484 1.27150879 -3.35449219 1.41137695 C-31.72692828 4.84492957 -31.72692828 4.84492957 -60 9 C-60.33 10.32 -60.66 11.64 -61 13 C-53.07628659 13.26461381 -45.32238007 12.87001691 -37.4375 12.125 C-36.58841064 12.04652832 -35.73932129 11.96805664 -34.86450195 11.88720703 C-30.26594509 11.42950369 -25.74206984 10.80283984 -21.19140625 9.99609375 C-14.65068687 8.8694526 -8.11762325 8.37487165 -1.5 7.9375 C0.78146588 7.7831055 3.06272954 7.62568494 5.34375 7.46484375 C6.83165039 7.36610962 6.83165039 7.36610962 8.34960938 7.26538086 C10.91623658 7.07338441 10.91623658 7.07338441 13.02832031 6.49072266 C15.44120139 5.89019133 17.71924383 5.78468194 20.203125 5.68359375 C21.67265625 5.62075195 21.67265625 5.62075195 23.171875 5.55664062 C24.18765625 5.51732422 25.2034375 5.47800781 26.25 5.4375 C27.28125 5.39431641 28.3125 5.35113281 29.375 5.30664062 C31.9165387 5.20074318 34.45817196 5.09866557 37 5 C37 5.33 37 5.66 37 6 C24.75917343 7.59503132 12.52479632 9.10759274 0.23095703 10.22998047 C-7.29083813 10.92019586 -14.80197289 11.6966525 -22.3125 12.5 C-23.51068359 12.62802002 -24.70886719 12.75604004 -25.94335938 12.88793945 C-33.54558875 13.70990158 -41.12958672 14.61418458 -48.703125 15.66796875 C-58.9500772 16.69994853 -58.9500772 16.69994853 -63 14 C-63.3125 11.5 -63.3125 11.5 -63 9 C-60.50447062 6.50447062 -59.20136101 6.52837784 -55.7421875 6.03515625 C-54.10817993 5.79684082 -54.10817993 5.79684082 -52.44116211 5.55371094 C-50.67591187 5.31056152 -50.67591187 5.31056152 -48.875 5.0625 C-47.67045166 4.89137695 -46.46590332 4.72025391 -45.22485352 4.54394531 C-41.48470624 4.01792971 -37.74279286 3.50682114 -34 3 C-32.8567627 2.84321777 -31.71352539 2.68643555 -30.53564453 2.52490234 C-27.33750032 2.08984161 -24.13807211 1.66679149 -20.9375 1.25 C-19.98278809 1.12246338 -19.02807617 0.99492676 -18.04443359 0.86352539 C-11.99800423 0.10332053 -6.09200972 -0.148485 0 0 Z " fill="#EBD2D3" transform="translate(90,101)"/>
<path d="M0 0 C0 0.33 0 0.66 0 1 C-1.216875 1.03738281 -2.43375 1.07476562 -3.6875 1.11328125 C-16.19950412 1.55974645 -28.61494335 2.54629359 -41.07348633 3.76831055 C-53.713366 5.00377762 -66.36703481 6.02358182 -79.02954102 6.99755859 C-80.5340187 7.11553735 -82.03849469 7.23353758 -83.54296875 7.3515625 C-84.22489288 7.40250061 -84.90681702 7.45343872 -85.60940552 7.50592041 C-89.14418285 7.78509772 -92.53099587 8.28404861 -96 9 C-98.43666765 9.06701506 -100.87501742 9.08528021 -103.3125 9.0625 C-104.56675781 9.05347656 -105.82101563 9.04445313 -107.11328125 9.03515625 C-108.06589844 9.02355469 -109.01851562 9.01195313 -110 9 C-110 8.67 -110 8.34 -110 8 C-108.87851563 7.94392578 -108.87851563 7.94392578 -107.734375 7.88671875 C-106.74953125 7.82097656 -105.7646875 7.75523438 -104.75 7.6875 C-103.77546875 7.62949219 -102.8009375 7.57148437 -101.796875 7.51171875 C-98.74658389 6.95363476 -97.29288724 6.03630224 -95 4 C-95.33 3.01 -95.66 2.02 -96 1 C-93.69 1.33 -91.38 1.66 -89 2 C-89 2.99 -89 3.98 -89 5 C-87.82308594 4.86722656 -86.64617187 4.73445313 -85.43359375 4.59765625 C-75.19105746 3.48557335 -65.00627261 2.76092285 -54.71044922 2.39697266 C-48.12649633 2.14530762 -41.61487414 1.61659429 -35.0625 0.9375 C-23.37696293 -0.25538079 -11.73396397 -0.20087112 0 0 Z " fill="#E7A7AA" transform="translate(241,97)"/>
<path d="M0 0 C8.8004251 -0.02364409 17.60083854 -0.04117028 26.40128899 -0.05181217 C30.49198437 -0.05693133 34.58265736 -0.06381641 38.67333984 -0.07543945 C67.51677168 -0.15503746 96.33285193 0.18565289 125.125 2.0625 C126.60804156 2.1548021 128.09111488 2.24659525 129.57421875 2.33789062 C133.04985707 2.55286707 136.52504383 2.77422972 140 3 C140 3.33 140 3.66 140 4 C135.0703976 4.02471455 130.14083126 4.04286691 125.21118164 4.05493164 C123.53409192 4.05996113 121.85700658 4.06678548 120.17993164 4.07543945 C117.769683 4.08756559 115.35949232 4.09324215 112.94921875 4.09765625 C112.19912033 4.10281754 111.44902191 4.10797882 110.67619324 4.11329651 C107.51048768 4.11363785 105.02662028 4.00887343 102 3 C100.59180604 2.88927267 99.17922217 2.82987495 97.766922 2.80381775 C96.47337044 2.77651329 96.47337044 2.77651329 95.15368652 2.74865723 C94.21069702 2.73355103 93.26770752 2.71844482 92.29614258 2.70288086 C90.80318916 2.67340111 90.80318916 2.67340111 89.28007507 2.64332581 C85.98496172 2.57937227 82.68976744 2.52208779 79.39453125 2.46484375 C77.11194598 2.42184222 74.82936849 2.3784257 72.54679871 2.33460999 C66.53483102 2.22032432 60.52277388 2.1116894 54.51068115 2.00421143 C48.37749979 1.89357507 42.24441924 1.77762181 36.11132812 1.66210938 C24.07431169 1.43618791 12.03719411 1.21623302 0 1 C0 0.67 0 0.34 0 0 Z " fill="#D44147" transform="translate(297,86)"/>
<path d="M0 0 C1.44149414 0.01353516 1.44149414 0.01353516 2.91210938 0.02734375 C5.25417805 0.05064792 7.59569792 0.08335942 9.9375 0.125 C9.6075 1.445 9.2775 2.765 8.9375 4.125 C4.15461853 4.41400979 -0.62849713 4.6986514 -5.41186523 4.97949219 C-7.03432997 5.07533806 -8.65672835 5.17231493 -10.27905273 5.27050781 C-19.21397169 5.81051525 -28.10598333 6.30321451 -37.0625 6.125 C-36.4025 4.805 -35.7425 3.485 -35.0625 2.125 C-34.08410156 2.14820312 -33.10570312 2.17140625 -32.09765625 2.1953125 C-30.78667969 2.21335937 -29.47570312 2.23140625 -28.125 2.25 C-26.83722656 2.27320312 -25.54945313 2.29640625 -24.22265625 2.3203125 C-21.24971928 2.27579794 -18.63109045 1.84920853 -15.75 1.125 C-10.48439673 -0.1507895 -5.39202549 -0.09755926 0 0 Z " fill="#E91C23" transform="translate(292.0625,87.875)"/>
<path d="M0 0 C45.11283265 -0.38507342 45.11283265 -0.38507342 64.3125 1.4296875 C69.74583655 1.93309023 75.17600783 2.24340794 80.625 2.5078125 C81.47377213 2.54929413 82.32254425 2.59077576 83.19703674 2.6335144 C86.60513262 2.79794458 90.01326393 2.95969983 93.42208862 3.1083374 C102.42694864 3.50196648 111.17477658 3.99531796 120 6 C120 6.33 120 6.66 120 7 C115.85387186 6.86186975 111.70818838 6.71321141 107.5625 6.5625 C106.37849609 6.52318359 105.19449219 6.48386719 103.97460938 6.44335938 C102.28754883 6.38051758 102.28754883 6.38051758 100.56640625 6.31640625 C99.52427979 6.27974854 98.48215332 6.24309082 97.40844727 6.20532227 C95 6 95 6 94 5 C91.19568637 4.7794231 88.41075715 4.61968344 85.6015625 4.5 C84.7380014 4.45939453 83.87444031 4.41878906 82.98471069 4.37695312 C80.19832511 4.24685779 77.41169581 4.123254 74.625 4 C71.91474677 3.87588107 69.20455747 3.75042822 66.49436951 3.62489319 C64.68016572 3.54113867 62.86592547 3.45817044 61.051651 3.3759613 C55.91601395 3.14197861 50.78241287 2.88498886 45.6492157 2.60264587 C35.70637461 2.05593112 25.76642957 1.70475619 15.8125 1.4375 C14.26106174 1.39409289 12.70962941 1.35047359 11.15820312 1.30664062 C7.43886652 1.20200235 3.71946022 1.10016037 0 1 C0 0.67 0 0.34 0 0 Z " fill="#E7C3C4" transform="translate(369,86)"/>
<path d="M0 0 C-0.474375 0.433125 -0.94875 0.86625 -1.4375 1.3125 C-3.23686957 3.02309613 -3.23686957 3.02309613 -4 6 C-14.39113779 7.30618118 -24.51074452 8.33358056 -35 8 C-34.505 7.525625 -34.01 7.05125 -33.5 6.5625 C-31.88457803 5.24076302 -31.88457803 5.24076302 -32 4 C-28.7 4 -25.4 4 -22 4 C-22 3.34 -22 2.68 -22 2 C-14.56340812 -0.01670288 -7.68395543 -0.2137731 0 0 Z " fill="#EA1C23" transform="translate(100,102)"/>
<path d="M0 0 C0.33 0 0.66 0 1 0 C0.96447021 0.60996826 0.92894043 1.21993652 0.89233398 1.84838867 C0.73415389 4.62776346 0.58573811 7.40757796 0.4375 10.1875 C0.38142578 11.14720703 0.32535156 12.10691406 0.26757812 13.09570312 C0.21923828 14.02705078 0.17089844 14.95839844 0.12109375 15.91796875 C0.0739624 16.77156982 0.02683105 17.6251709 -0.02172852 18.50463867 C0.00107571 21.12353758 0.40786794 23.45403152 1 26 C-4.625 27.125 -4.625 27.125 -8 26 C-8.66 22.7 -9.32 19.4 -10 16 C-4.375 13 -4.375 13 -1 13 C-1.01160156 12.39671875 -1.02320313 11.7934375 -1.03515625 11.171875 C-1.04417969 10.37265625 -1.05320313 9.5734375 -1.0625 8.75 C-1.07410156 7.96109375 -1.08570313 7.1721875 -1.09765625 6.359375 C-1.00385306 4.09308998 -0.63241063 2.1711105 0 0 Z " fill="#EBEBEB" transform="translate(158,49)"/>
<path d="M0 0 C0.85049423 0.00222061 1.70098846 0.00444122 2.57725525 0.00672913 C4.01863609 0.00684242 4.01863609 0.00684242 5.48913574 0.00695801 C7.05630592 0.01469994 7.05630592 0.01469994 8.65513611 0.02259827 C9.71913132 0.02401321 10.78312653 0.02542816 11.87936401 0.02688599 C15.29293069 0.03250388 18.70643286 0.04505941 22.11997986 0.05775452 C24.42792162 0.06276721 26.73586441 0.06733052 29.04380798 0.07142639 C34.71505412 0.08247912 40.38626238 0.09923465 46.05747986 0.12025452 C46.05747986 0.45025452 46.05747986 0.78025452 46.05747986 1.12025452 C40.99136383 1.91526414 35.97354892 2.3680033 30.85044861 2.62025452 C30.08501236 2.66085999 29.31957611 2.70146545 28.53094482 2.74330139 C26.10243365 2.87190773 23.67374193 2.99648362 21.24497986 3.12025452 C18.05081586 3.28410703 14.85679321 3.45028558 11.66294861 3.62025452 C10.51931854 3.68110985 10.51931854 3.68110985 9.35258484 3.74319458 C4.54126259 4.009703 -0.23952631 4.40207444 -5.03016663 4.92835999 C-8.67600247 5.29420027 -12.28345834 5.17927164 -15.94252014 5.12025452 C-13.06833293 3.54833062 -10.46414409 2.68897063 -7.25502014 2.05775452 C-4.60906184 1.5337595 -2.47213818 0.15304129 0 0 Z " fill="#DD373B" transform="translate(201.94252014160156,94.87974548339844)"/>
<path d="M0 0 C0 0.33 0 0.66 0 1 C-12.49011533 2.6275147 -24.97297769 4.16134748 -37.51831055 5.29589844 C-43.88999421 5.87642281 -50.238962 6.58183362 -56.58569336 7.39086914 C-60.08113477 7.82555134 -63.47714419 8.09484612 -67 8 C-59.27964288 2.85309526 -47.52692193 3.53410691 -38.5 2.9375 C-36.21853412 2.7831055 -33.93727046 2.62568494 -31.65625 2.46484375 C-30.16834961 2.36610962 -30.16834961 2.36610962 -28.65039062 2.26538086 C-26.321901 2.03223161 -24.25417618 1.59452751 -22 1 C-19.56566003 0.77516358 -17.1273152 0.59198076 -14.6875 0.4375 C-13.41261719 0.35371094 -12.13773438 0.26992187 -10.82421875 0.18359375 C-7.20869938 0.01001928 -3.61895274 -0.03277189 0 0 Z " fill="#EBC8CA" transform="translate(127,106)"/>
<path d="M0 0 C1.66949355 0.03767954 3.33759288 0.15428796 5 0.3125 C6.36125 0.43044922 6.36125 0.43044922 7.75 0.55078125 C8.4925 0.69902344 9.235 0.84726563 10 1 C10.33 1.66 10.66 2.32 11 3 C3.56795212 4.28653688 -3.46135231 5.12564413 -11 5 C-11.33 5.33 -11.66 5.66 -12 6 C-13.99958364 6.04080783 -16.00045254 6.04254356 -18 6 C-18 4.68 -18 3.36 -18 2 C-16.17662109 1.90912109 -16.17662109 1.90912109 -14.31640625 1.81640625 C-12.73175772 1.73201668 -11.14712298 1.6473679 -9.5625 1.5625 C-8.76005859 1.52318359 -7.95761719 1.48386719 -7.13085938 1.44335938 C-3.24760439 1.5945704 -3.24760439 1.5945704 0 0 Z " fill="#EC1B22" transform="translate(48,108)"/>
<path d="M0 0 C0 0.66 0 1.32 0 2 C0.66 2.66 1.32 3.32 2 4 C-3.31531689 5.77410051 -7.85618805 6.2577668 -13.4375 6.125 C-14.16904297 6.11597656 -14.90058594 6.10695313 -15.65429688 6.09765625 C-17.43634298 6.07436153 -19.21821759 6.0385019 -21 6 C-17.12063127 1.99131898 -15.16873016 0.90567024 -9.625 0.4375 C-8.19027344 0.31181641 -8.19027344 0.31181641 -6.7265625 0.18359375 C-4.48860774 0.03290052 -2.24302251 0 0 0 Z " fill="#E91C23" transform="translate(120,100)"/>
<path d="M0 0 C0.33 0 0.66 0 1 0 C1.33 1.98 1.66 3.96 2 6 C2.66 5.01 3.32 4.02 4 3 C4 5.31 4 7.62 4 10 C5.98 9.34 7.96 8.68 10 8 C10.125 10.875 10.125 10.875 10 14 C9.34 14.66 8.68 15.32 8 16 C7.67 14.35 7.34 12.7 7 11 C6.855625 11.78375 6.71125 12.5675 6.5625 13.375 C6 16 6 16 5 18 C4.34 18 3.68 18 3 18 C3.33 16.68 3.66 15.36 4 14 C3.01 14.33 2.02 14.66 1 15 C-0.34136367 14.34964186 -1.67532254 13.6837045 -3 13 C-3.99 13.495 -3.99 13.495 -5 14 C-3 10 -3 10 -1.9375 8.125 C-0.7614358 5.45925448 -0.39213842 2.87568173 0 0 Z " fill="#EEEFEF" transform="translate(464,36)"/>
<path d="M0 0 C7.59 0 15.18 0 23 0 C23.495 0.99 23.495 0.99 24 2 C22.02 2 20.04 2 18 2 C18 2.99 18 3.98 18 5 C14.45233334 7.36511111 13.1927218 7.18013277 9.01953125 6.9765625 C7.85615234 6.925 6.69277344 6.8734375 5.49414062 6.8203125 C4.27919922 6.75585938 3.06425781 6.69140625 1.8125 6.625 C0.58595703 6.56828125 -0.64058594 6.5115625 -1.90429688 6.453125 C-4.93677888 6.31153051 -7.96844806 6.16010492 -11 6 C-11 5.67 -11 5.34 -11 5 C-2.42 5 6.16 5 15 5 C15 4.01 15 3.02 15 2 C10.05 1.67 5.1 1.34 0 1 C0 0.67 0 0.34 0 0 Z " fill="#D34646" transform="translate(440,90)"/>
<path d="M0 0 C0.33 0 0.66 0 1 0 C0.979375 1.2375 0.95875 2.475 0.9375 3.75 C0.92708803 6.69658724 1.23285893 9.15061887 2 12 C1.67 12.66 1.34 13.32 1 14 C-0.32 14 -1.64 14 -3 14 C-2.67 14.99 -2.34 15.98 -2 17 C-2.66 17.33 -3.32 17.66 -4 18 C-4.66 17.67 -5.32 17.34 -6 17 C-6 18.65 -6 20.3 -6 22 C-4.02 22.66 -2.04 23.32 0 24 C-0.66 24.99 -1.32 25.98 -2 27 C-2.66 27 -3.32 27 -4 27 C-4 27.66 -4 28.32 -4 29 C-4.99 28.67 -5.98 28.34 -7 28 C-6.34 28 -5.68 28 -5 28 C-5.7425 26.824375 -5.7425 26.824375 -6.5 25.625 C-8 23 -8 23 -8 21 C-8.99 21.33 -9.98 21.66 -11 22 C-11 18.71171788 -8.24814003 17.24814003 -6 15 C-2.66683541 10.51304767 -1.4564491 5.3196545 0 0 Z " fill="#EBECEB" transform="translate(281,36)"/>
<path d="M0 0 C2.31 0 4.62 0 7 0 C7.2475 0.61875 7.495 1.2375 7.75 1.875 C9.20628639 4.35068687 10.37812506 4.95125002 13 6 C13 6.33 13 6.66 13 7 C2.44191344 7.18451025 2.44191344 7.18451025 -2 6 C-1.34 4.02 -0.68 2.04 0 0 Z " fill="#6F1A21" transform="translate(489,94)"/>
<path d="M0 0 C0.98291016 0.05478516 1.96582031 0.10957031 2.97851562 0.16601562 C4.00267578 0.23884766 5.02683594 0.31167969 6.08203125 0.38671875 C7.63567383 0.47856445 7.63567383 0.47856445 9.22070312 0.57226562 C11.77985082 0.72557862 14.3372017 0.89342945 16.89453125 1.07421875 C16.89453125 2.06421875 16.89453125 3.05421875 16.89453125 4.07421875 C0.186103 4.258729 0.186103 4.258729 -8.10546875 3.07421875 C-5.59121799 -0.10952859 -3.96564307 -0.25215072 0 0 Z " fill="#EB1B25" transform="translate(438.10546875,90.92578125)"/>
<path d="M0 0 C4.95 0 9.9 0 15 0 C13.68 1.32 12.36 2.64 11 4 C11.99 4 12.98 4 14 4 C14 4.66 14 5.32 14 6 C13.01 6 12.02 6 11 6 C11 6.66 11 7.32 11 8 C3.41 8.33 -4.18 8.66 -12 9 C-12 8.67 -12 8.34 -12 8 C-5.97403427 6.9287172 -0.11090483 6.90054585 6 7 C6.12375 6.360625 6.2475 5.72125 6.375 5.0625 C6.684375 4.0415625 6.684375 4.0415625 7 3 C7.66 2.67 8.32 2.34 9 2 C6.03 1.67 3.06 1.34 0 1 C0 0.67 0 0.34 0 0 Z " fill="#DB373E" transform="translate(90,101)"/>
<path d="M0 0 C3.63 0 7.26 0 11 0 C11 0.66 11 1.32 11 2 C11.99 2.33 12.98 2.66 14 3 C12.68 3 11.36 3 10 3 C10.33 3.99 10.66 4.98 11 6 C7.41871818 7.23967448 4.63396678 7.02699061 1 6 C-0.4375 4.0625 -0.4375 4.0625 -1 2 C-0.67 1.34 -0.34 0.68 0 0 Z " fill="#F2F3F3" transform="translate(204,13)"/>
<path d="M0 0 C2.64 0.33 5.28 0.66 8 1 C8 1.33 8 1.66 8 2 C6.02 2.66 4.04 3.32 2 4 C1.95101562 4.91523438 1.90203125 5.83046875 1.8515625 6.7734375 C1.77679688 7.96195313 1.70203125 9.15046875 1.625 10.375 C1.55539063 11.55835938 1.48578125 12.74171875 1.4140625 13.9609375 C1 17 1 17 -1 19 C-3.80818278 14.3232956 -2.91316755 10.18578638 -2 5 C-0.9375 1.875 -0.9375 1.875 0 0 Z " fill="#EAEAEA" transform="translate(70,19)"/>
<path d="M0 0 C-4.455 0.495 -4.455 0.495 -9 1 C-9 1.66 -9 2.32 -9 3 C-18.24 3.33 -27.48 3.66 -37 4 C-37 3.67 -37 3.34 -37 3 C-32.37468556 2.40260797 -27.7482807 1.81490485 -23.12060547 1.23608398 C-21.54702723 1.03788767 -19.9737776 0.83706382 -18.40087891 0.63354492 C-16.13786101 0.34119675 -13.87382345 0.05836817 -11.609375 -0.22265625 C-10.55759064 -0.36164085 -10.55759064 -0.36164085 -9.48455811 -0.50343323 C-5.87738149 -0.94127936 -3.59481288 -0.89870322 0 0 Z " fill="#D7454D" transform="translate(87,103)"/>
<path d="M0 0 C0.66 0.33 1.32 0.66 2 1 C2 1.66 2 2.32 2 3 C5.62885324 3.15149298 5.62885324 3.15149298 9 2 C10.8863912 1.915085 12.77578515 1.892807 14.6640625 1.90234375 C15.78554688 1.90556641 16.90703125 1.90878906 18.0625 1.91210938 C19.238125 1.92048828 20.41375 1.92886719 21.625 1.9375 C22.80835937 1.94201172 23.99171875 1.94652344 25.2109375 1.95117188 C28.14067507 1.96298533 31.07031272 1.97945742 34 2 C34 2.33 34 2.66 34 3 C22.64650681 4.21086752 11.43227487 5.38178283 0 5 C-0.5625 3.0625 -0.5625 3.0625 -1 1 C-0.67 0.67 -0.34 0.34 0 0 Z " fill="#DC3F49" transform="translate(29,110)"/>
<path d="M0 0 C7.55367864 -0.2763541 14.98549314 0.15836136 22.5 0.875 C23.80855957 0.99270752 23.80855957 0.99270752 25.14355469 1.11279297 C26.38733887 1.23871826 26.38733887 1.23871826 27.65625 1.3671875 C28.76709961 1.47716064 28.76709961 1.47716064 29.90039062 1.58935547 C32.2025944 2.0396237 33.95720439 2.8649212 36 4 C31.85387186 3.86186975 27.70818838 3.71321141 23.5625 3.5625 C21.78649414 3.50352539 21.78649414 3.50352539 19.97460938 3.44335938 C18.28754883 3.38051758 18.28754883 3.38051758 16.56640625 3.31640625 C15.52427979 3.27974854 14.48215332 3.24309082 13.40844727 3.20532227 C11 3 11 3 10 2 C8.31816052 1.76712992 6.6287584 1.58735834 4.9375 1.4375 C4.01839844 1.35371094 3.09929687 1.26992187 2.15234375 1.18359375 C1.08693359 1.09271484 1.08693359 1.09271484 0 1 C0 0.67 0 0.34 0 0 Z " fill="#ECD7D7" transform="translate(453,89)"/>
<path d="M0 0 C0.99 0.33 1.98 0.66 3 1 C2.34 4.63 1.68 8.26 1 12 C0.34 11.67 -0.32 11.34 -1 11 C-1.680625 11.99 -1.680625 11.99 -2.375 13 C-2.91125 13.66 -3.4475 14.32 -4 15 C-4.66 15 -5.32 15 -6 15 C-5.67 12.69 -5.34 10.38 -5 8 C-4.01 8 -3.02 8 -2 8 C-1.7834375 6.576875 -1.7834375 6.576875 -1.5625 5.125 C-1 2 -1 2 0 0 Z " fill="#ECEDED" transform="translate(50,61)"/>
<path d="M0 0 C-0.66 0.66 -1.32 1.32 -2 2 C-1.67 2.99 -1.34 3.98 -1 5 C1.01508358 5.73323796 1.01508358 5.73323796 3 6 C3 6.66 3 7.32 3 8 C2.505 7.814375 2.01 7.62875 1.5 7.4375 C-2.15081689 6.79860704 -5.33964724 7.45094709 -9 8 C-8.34 7.67 -7.68 7.34 -7 7 C-7 6.01 -7 5.02 -7 4 C-7.66 3.67 -8.32 3.34 -9 3 C-5.92807025 0.26939578 -4.09590633 -0.34132553 0 0 Z " fill="#EEEFEF" transform="translate(346,54)"/>
<path d="M0 0 C0.66 0.33 1.32 0.66 2 1 C1.67 1.33 1.34 1.66 1 2 C1.66 2.33 2.32 2.66 3 3 C3 3.66 3 4.32 3 5 C1.68 4.67 0.36 4.34 -1 4 C-2.4606285 6.64738916 -3 7.89448334 -3 11 C-3.62599617 12.68236471 -4.28752268 14.3523962 -5 16 C-5.33 15.34 -5.66 14.68 -6 14 C-6.66 14 -7.32 14 -8 14 C-7.60350587 12.20376144 -7.18206548 10.41301565 -6.75 8.625 C-6.51796875 7.62726562 -6.2859375 6.62953125 -6.046875 5.6015625 C-5 3 -5 3 -2.953125 1.7109375 C-2.30859375 1.47632813 -1.6640625 1.24171875 -1 1 C-0.67 0.67 -0.34 0.34 0 0 Z " fill="#EEEFEF" transform="translate(505,43)"/>
<path d="M0 0 C3.12290635 0.48578543 5.99580359 0.9986012 9 2 C8.67 3.32 8.34 4.64 8 6 C0.57142857 6.28571429 0.57142857 6.28571429 -3 4 C-2.01 3.67 -1.02 3.34 0 3 C0 2.01 0 1.02 0 0 Z " fill="#C60614" transform="translate(478,93)"/>
<path d="M0 0 C0 0.33 0 0.66 0 1 C-11.03691812 3.25572049 -21.78461253 3.20127315 -33 3 C-33 2.67 -33 2.34 -33 2 C-21.92900046 0.57966558 -11.16809528 -0.2964981 0 0 Z " fill="#D93941" transform="translate(208,91)"/>
<path d="M0 0 C5.66104589 0.49658297 9.87674471 1.54510684 15 4 C15 5.65 15 7.3 15 9 C14.5875 8.505 14.175 8.01 13.75 7.5 C11.87797662 5.56613908 11.87797662 5.56613908 8 6 C7.01 5.34 6.02 4.68 5 4 C5.33 3.67 5.66 3.34 6 3 C5.34 2.67 4.68 2.34 4 2 C4 2.66 4 3.32 4 4 C3.01 3.67 2.02 3.34 1 3 C1.66 3 2.32 3 3 3 C3 2.34 3 1.68 3 1 C2.01 0.67 1.02 0.34 0 0 Z " fill="#E8E8E8" transform="translate(550,24)"/>
<path d="M0 0 C0 0.33 0 0.66 0 1 C-1.21558594 1.13277344 -2.43117188 1.26554687 -3.68359375 1.40234375 C-5.26825484 1.58050091 -6.8528889 1.75889875 -8.4375 1.9375 C-9.64116211 2.06801758 -9.64116211 2.06801758 -10.86914062 2.20117188 C-14.75576664 2.30548394 -14.75576664 2.30548394 -18 4 C-20.53049402 4.07313567 -23.03304837 4.09247527 -25.5625 4.0625 C-26.27341797 4.05798828 -26.98433594 4.05347656 -27.71679688 4.04882812 C-29.47790013 4.03700864 -31.23896036 4.01907263 -33 4 C-33 3.67 -33 3.34 -33 3 C-29.56429127 2.48716694 -26.12622082 1.99219602 -22.6875 1.5 C-21.73037109 1.35691406 -20.77324219 1.21382813 -19.78710938 1.06640625 C-13.14716053 0.12742359 -6.70270487 -0.17714233 0 0 Z " fill="#ECCFD1" transform="translate(124,97)"/>
<path d="M0 0 C4.29 0.33 8.58 0.66 13 1 C13 1.99 13 2.98 13 4 C8.05 4 3.1 4 -2 4 C-1.34 3.67 -0.68 3.34 0 3 C0 2.01 0 1.02 0 0 Z " fill="#E91C24" transform="translate(458,92)"/>
<path d="M0 0 C0.33 0 0.66 0 1 0 C1.66 3.96 2.32 7.92 3 12 C-3 13 -3 13 -6 12 C-5.67 11.01 -5.34 10.02 -5 9 C-5 9.66 -5 10.32 -5 11 C-3.68 11 -2.36 11 -1 11 C-1.66 8.69 -2.32 6.38 -3 4 C-2.01 3.67 -1.02 3.34 0 3 C0 2.01 0 1.02 0 0 Z " fill="#E7E8E8" transform="translate(156,63)"/>
<path d="M0 0 C0.33 0.99 0.66 1.98 1 3 C0.34 3 -0.32 3 -1 3 C-0.67 4.32 -0.34 5.64 0 7 C-2.475 8.485 -2.475 8.485 -5 10 C-5 9.01 -5 8.02 -5 7 C-6.65 7.66 -8.3 8.32 -10 9 C-8.77946141 5.33838422 -7.63217696 4.83729526 -4.4375 2.8125 C-3.61121094 2.28269531 -2.78492188 1.75289062 -1.93359375 1.20703125 C-1.29550781 0.80871094 -0.65742188 0.41039063 0 0 Z " fill="#ECECEC" transform="translate(206,23)"/>
<path d="M0 0 C3.63 0.33 7.26 0.66 11 1 C10.67 2.98 10.34 4.96 10 7 C11.32 7.66 12.64 8.32 14 9 C12.5629191 9.05422947 11.12524538 9.09289723 9.6875 9.125 C8.88699219 9.14820312 8.08648437 9.17140625 7.26171875 9.1953125 C5 9 5 9 2 7 C3.98 6.67 5.96 6.34 8 6 C8.33 5.01 8.66 4.02 9 3 C4.545 2.01 4.545 2.01 0 1 C0 0.67 0 0.34 0 0 Z " fill="#AA3841" transform="translate(478,92)"/>
<path d="M0 0 C0.33 0.66 0.66 1.32 1 2 C1.99 2 2.98 2 4 2 C4 2.66 4 3.32 4 4 C0.69649386 7.11997802 -0.32409833 8 -5 8 C-5 8.99 -5 9.98 -5 11 C-5.99 11 -6.98 11 -8 11 C-8 8 -8 8 -6 6 C-6 5.34 -6 4.68 -6 4 C-4.35 4 -2.7 4 -1 4 C-0.67 2.68 -0.34 1.36 0 0 Z " fill="#EDEDED" transform="translate(211,59)"/>
<path d="M0 0 C8.58 0 17.16 0 26 0 C26 0.33 26 0.66 26 1 C16.82498544 3.47973366 9.21864494 2.61730613 0 1 C0 0.67 0 0.34 0 0 Z " fill="#E2252E" transform="translate(255,88)"/>
<path d="M0 0 C2.375 0.6875 2.375 0.6875 5 2 C6.3125 4.625 6.3125 4.625 7 7 C6.34 7 5.68 7 5 7 C5 8.32 5 9.64 5 11 C4.34 11 3.68 11 3 11 C2.33333333 9.66666667 1.66666667 8.33333333 1 7 C0.608125 6.319375 0.21625 5.63875 -0.1875 4.9375 C-1 3 -1 3 0 0 Z " fill="#E6E7E7" transform="translate(61,49)"/>
<path d="M0 0 C0.99 0.33 1.98 0.66 3 1 C2.01 1.495 2.01 1.495 1 2 C1 2.99 1 3.98 1 5 C1.66 5 2.32 5 3 5 C2.67 6.65 2.34 8.3 2 10 C1.34 10 0.68 10 0 10 C-0.33 11.32 -0.66 12.64 -1 14 C-3.43326039 5.96498906 -3.43326039 5.96498906 -1.625 1.9375 C-1.08875 1.298125 -0.5525 0.65875 0 0 Z " fill="#E8E9E8" transform="translate(319,41)"/>
<path d="M0 0 C1.485 0.99 1.485 0.99 3 2 C3 2.66 3 3.32 3 4 C4.97536745 3.65213292 4.97536745 3.65213292 7 3 C7.33 2.34 7.66 1.68 8 1 C8 3.31 8 5.62 8 8 C7.01 8.495 7.01 8.495 6 9 C1.3125 5.484375 1.3125 5.484375 0 4 C0 2.68 0 1.36 0 0 Z " fill="#EEEFEF" transform="translate(371,43)"/>
<path d="M0 0 C0.66 0.33 1.32 0.66 2 1 C2.4140625 3.06640625 2.4140625 3.06640625 2.625 5.5625 C2.69976562 6.38878906 2.77453125 7.21507813 2.8515625 8.06640625 C2.90054688 8.70449219 2.94953125 9.34257813 3 10 C0.03 9.505 0.03 9.505 -3 9 C-2.66666667 7.66666667 -2.33333333 6.33333333 -2 5 C-1.7525 3.9171875 -1.7525 3.9171875 -1.5 2.8125 C-1 1 -1 1 0 0 Z " fill="#F9FAF9" transform="translate(152,64)"/>
<path d="M0 0 C-0.66 1.65 -1.32 3.3 -2 5 C-4.97 4.67 -7.94 4.34 -11 4 C-7.65667474 -0.27945633 -5.29105716 -0.4070044 0 0 Z " fill="#EDEDED" transform="translate(542,42)"/>
<path d="M0 0 C-3.04681061 2.03120707 -3.60118324 2.24659875 -7.01171875 2.1953125 C-7.76904297 2.18886719 -8.52636719 2.18242188 -9.30664062 2.17578125 C-10.09232422 2.15902344 -10.87800781 2.14226562 -11.6875 2.125 C-12.48478516 2.11597656 -13.28207031 2.10695313 -14.10351562 2.09765625 C-16.069139 2.07411585 -18.03460775 2.03824547 -20 2 C-20 1.67 -20 1.34 -20 1 C-17.41765641 0.63667026 -14.83460218 0.28405133 -12.25 -0.0625 C-11.52039062 -0.16626953 -10.79078125 -0.27003906 -10.0390625 -0.37695312 C-6.3892704 -0.85806208 -3.52327086 -1.04532842 0 0 Z " fill="#D8333A" transform="translate(50,108)"/>
<path d="M0 0 C0.99 0.66 1.98 1.32 3 2 C2.34 5.3 1.68 8.6 1 12 C0.67 10.68 0.34 9.36 0 8 C-0.33 7.67 -0.66 7.34 -1 7 C-1.33 7.99 -1.66 8.98 -2 10 C-1.125 2.25 -1.125 2.25 0 0 Z " fill="#E7E8E8" transform="translate(66,38)"/>
<path d="M0 0 C1.17949219 0.01804687 2.35898438 0.03609375 3.57421875 0.0546875 C4.92966797 0.08949219 4.92966797 0.08949219 6.3125 0.125 C5.6009375 0.7746875 5.6009375 0.7746875 4.875 1.4375 C3.07563043 3.14809613 3.07563043 3.14809613 2.3125 6.125 C1.6525 5.795 0.9925 5.465 0.3125 5.125 C0.6425 3.805 0.9725 2.485 1.3125 1.125 C0.796875 1.29 0.28125 1.455 -0.25 1.625 C-3.42113876 2.27549 -6.45968334 2.1870734 -9.6875 2.125 C-6.05554504 -0.29630331 -4.30400652 -0.08522785 0 0 Z " fill="#DD2128" transform="translate(93.6875,101.875)"/>
<path d="M0 0 C1.98 0.66 3.96 1.32 6 2 C6 2.99 6 3.98 6 5 C3.36 5 0.72 5 -2 5 C-1.34 3.35 -0.68 1.7 0 0 Z " fill="#90010B" transform="translate(489,95)"/>
<path d="M0 0 C0.99 0.33 1.98 0.66 3 1 C3 3.64 3 6.28 3 9 C2.34 8.01 1.68 7.02 1 6 C0.01 6.33 -0.98 6.66 -2 7 C-2.33 5.68 -2.66 4.36 -3 3 C-2.01 2.67 -1.02 2.34 0 2 C0 1.34 0 0.68 0 0 Z " fill="#ECEDED" transform="translate(287,44)"/>
<path d="M0 0 C0.33 0 0.66 0 1 0 C1.268125 1.19625 1.53625 2.3925 1.8125 3.625 C2.52369853 6.53163746 3.3246767 8.6493534 4.6875 11.375 C5.120625 12.24125 5.55375 13.1075 6 14 C5.67 14.66 5.34 15.32 5 16 C0.20351534 10.42988878 -0.14010144 7.28527473 0 0 Z " fill="#E6E6E6" transform="translate(473,54)"/>
<path d="M0 0 C1.65 0 3.3 0 5 0 C5 0.66 5 1.32 5 2 C5.99 2 6.98 2 8 2 C7.67 2.99 7.34 3.98 7 5 C4.69 4.67 2.38 4.34 0 4 C0 2.68 0 1.36 0 0 Z " fill="#EAEAEA" transform="translate(83,38)"/>
<path d="M0 0 C0.66 0.33 1.32 0.66 2 1 C1.319375 1.5259375 1.319375 1.5259375 0.625 2.0625 C-1.64661334 4.77096206 -2.16798854 7.60795328 -3 11 C-6 7.25 -6 7.25 -6 5 C-5.01 5 -4.02 5 -3 5 C-2.5359375 4.0409375 -2.5359375 4.0409375 -2.0625 3.0625 C-1 1 -1 1 0 0 Z " fill="#EAEAEA" transform="translate(121,62)"/>
<path d="M0 0 C0.33 0 0.66 0 1 0 C1.43177893 6.26079448 0.92739438 9.09075703 -3 14 C-3.99 13.67 -4.98 13.34 -6 13 C-5 10 -5 10 -3 8.75 C-0.09010996 6.20384622 -0.28160509 3.73126748 0 0 Z " fill="#EAEAEA" transform="translate(406,58)"/>
<path d="M0 0 C0.33 1.32 0.66 2.64 1 4 C2.65 3.67 4.3 3.34 6 3 C6 3.66 6 4.32 6 5 C5.01 5 4.02 5 3 5 C3 6.65 3 8.3 3 10 C2.34 10 1.68 10 1 10 C0.67 6.7 0.34 3.4 0 0 Z " fill="#E7E8E8" transform="translate(39,50)"/>
<path d="M0 0 C1.37562854 1.28965176 2.70766393 2.62689293 4 4 C4 4.66 4 5.32 4 6 C2.0625 6.5625 2.0625 6.5625 0 7 C-1 6 -1 6 -1.125 3.5 C-1 1 -1 1 0 0 Z " fill="#ECEDED" transform="translate(44,44)"/>
<path d="M0 0 C0 3.20395416 -0.74335022 5.09399739 -2 8 C-2.99 8 -3.98 8 -5 8 C-5.33 7.01 -5.66 6.02 -6 5 C-5.34 4.34 -4.68 3.68 -4 3 C-3.67 3.33 -3.34 3.66 -3 4 C-2.01 2.68 -1.02 1.36 0 0 Z " fill="#EBEBEB" transform="translate(126,45)"/>
<path d="M0 0 C2.86724686 0.57344937 3.8614515 0.8614515 6 3 C4.1875 4.5625 4.1875 4.5625 2 6 C1.01 5.67 0.02 5.34 -1 5 C-0.34 4.34 0.32 3.68 1 3 C0.67 2.01 0.34 1.02 0 0 Z " fill="#E7E7E7" transform="translate(549,37)"/>
<path d="M0 0 C0 1.32 0 2.64 0 4 C-1.65 4.33 -3.3 4.66 -5 5 C-5 3.68 -5 2.36 -5 1 C-3 0 -3 0 0 0 Z " fill="#EFF0EF" transform="translate(83,21)"/>
<path d="M0 0 C0.598125 0.309375 1.19625 0.61875 1.8125 0.9375 C4.08956772 2.10209704 4.08956772 2.10209704 7 3 C5.68 3.99 4.36 4.98 3 6 C2.67 5.01 2.34 4.02 2 3 C1.01 3 0.02 3 -1 3 C-0.67 2.01 -0.34 1.02 0 0 Z " fill="#ECECEC" transform="translate(429,66)"/>
<path d="M0 0 C0.99 1.32 1.98 2.64 3 4 C1.25 4.6875 1.25 4.6875 -1 5 C-3.25 3.5625 -3.25 3.5625 -5 2 C-4.01 1.67 -3.02 1.34 -2 1 C-1.34 1.33 -0.68 1.66 0 2 C0 1.34 0 0.68 0 0 Z " fill="#ECEDED" transform="translate(212,15)"/>
<path d="M0 0 C1.32 0 2.64 0 4 0 C3.67 2.97 3.34 5.94 3 9 C2.67 9 2.34 9 2 9 C1.34 6.03 0.68 3.06 0 0 Z " fill="#EDEEED" transform="translate(105,58)"/>
</svg>
