<?xml version="1.0" encoding="UTF-8"?>
<svg version="1.1" xmlns="http://www.w3.org/2000/svg" width="662" height="377">
<path d="M0 0 C2.58918553 0.01151181 5.17837938 0.0212909 7.76757812 0.02929688 C10.26563382 0.0427198 12.76368199 0.05764245 15.26171875 0.07421875 C16.40783127 0.08160568 17.55394379 0.08899261 18.73478699 0.09660339 C37.36619718 0.31496198 37.36619718 0.31496198 45.75 3.1875 C49.8970548 4.55192015 53.99790337 5.76048283 58.25 6.75 C75.27753667 10.94551362 92.08238559 18.58688969 106.375 28.8125 C109.19214836 30.82106227 112.01200117 32.77840854 114.9375 34.625 C115.72125 35.181875 116.505 35.73875 117.3125 36.3125 C117.3125 36.9725 117.3125 37.6325 117.3125 38.3125 C118.0240625 38.54324219 118.735625 38.77398437 119.46875 39.01171875 C122.87783185 40.57109273 125.07968069 42.56490102 127.8125 45.125 C128.7303125 45.97707031 129.648125 46.82914063 130.59375 47.70703125 C133.20332601 50.20787493 135.7676098 52.74600632 138.3125 55.3125 C139.4571875 56.4571875 139.4571875 56.4571875 140.625 57.625 C141.511875 58.511875 142.39875 59.39875 143.3125 60.3125 C143.95703125 60.93382812 144.6015625 61.55515625 145.265625 62.1953125 C149.16713732 65.9956745 152.60246609 69.56994066 155.3125 74.3125 C155.3125 74.9725 155.3125 75.6325 155.3125 76.3125 C156.3025 76.6425 157.2925 76.9725 158.3125 77.3125 C160.96011072 80.76444816 163.08833434 84.5774967 165.3125 88.3125 C165.98023438 89.43011719 166.64796875 90.54773438 167.3359375 91.69921875 C187.25066728 125.5170445 195.34397603 162.29997861 194.3125 201.3125 C194.29445313 202.50746094 194.27640625 203.70242187 194.2578125 204.93359375 C193.43728953 225.42253495 186.6219788 252.0878832 175.85546875 269.6953125 C174.37623385 272.20439448 173.27764617 274.74573341 172.16064453 277.43017578 C170.61865352 280.85238381 168.68266704 284.03729574 166.75 287.25 C166.35103516 287.93384766 165.95207031 288.61769531 165.54101562 289.32226562 C164.52370447 291.02231315 163.42457546 292.67287451 162.3125 294.3125 C161.6525 294.3125 160.9925 294.3125 160.3125 294.3125 C160.044375 295.075625 159.77625 295.83875 159.5 296.625 C158.32724509 299.27912954 157.35568638 300.35104108 155.3125 302.3125 C154.87292969 303.06917969 154.43335938 303.82585937 153.98046875 304.60546875 C152.2384216 307.43272561 150.31423679 309.68824288 148.0625 312.125 C145.33301275 315.09031495 142.68069666 318.07254147 140.125 321.1875 C136.80646509 325.00459414 133.07743915 328.2715898 129.25 331.5625 C128.66001221 332.07022949 128.07002441 332.57795898 127.4621582 333.10107422 C117.74824509 341.3125 117.74824509 341.3125 114.3125 341.3125 C113.9825 342.3025 113.6525 343.2925 113.3125 344.3125 C110.65166031 346.30646257 107.70007675 348.3125 104.3125 348.3125 C104.3125 348.9725 104.3125 349.6325 104.3125 350.3125 C103.35730469 350.82039063 102.40210938 351.32828125 101.41796875 351.8515625 C100.79760742 352.18188477 100.17724609 352.51220703 99.53808594 352.85253906 C98.16807026 353.58185742 96.79762011 354.31036017 95.42675781 355.03808594 C91.43963511 357.15945164 87.49310183 359.33763104 83.5625 361.5625 C79.1221674 363.99709544 74.6407238 365.81295048 69.8515625 367.4453125 C67.69179879 368.18295487 65.60798227 369.00489668 63.5 369.875 C58.30554095 371.84018389 52.84830579 372.75714532 47.4165802 373.83601379 C45.86983309 374.18628736 44.33625501 374.59604133 42.8132782 375.03837585 C34.70206719 377.33675656 27.15220882 377.73627636 18.75390625 377.67578125 C17.39297995 377.67526095 16.03205289 377.67578521 14.67112732 377.67729187 C11.84484367 377.67720299 9.01885028 377.6669387 6.19262695 377.64868164 C2.5792297 377.6258438 -1.03375074 377.6254868 -4.64720058 377.63219929 C-7.44653503 377.63554425 -10.24577511 377.6289018 -13.04509163 377.61907005 C-15.02203214 377.61338636 -16.9989887 377.61464928 -18.97593689 377.61604309 C-20.17811356 377.60651108 -21.38029022 377.59697906 -22.61889648 377.5871582 C-23.67302231 377.58255081 -24.72714813 377.57794342 -25.81321716 377.57319641 C-28.81118333 377.30128197 -30.94726977 376.51548103 -33.6875 375.3125 C-35.6799325 374.93656934 -37.6793674 374.59270455 -39.6875 374.3125 C-39.6875 373.6525 -39.6875 372.9925 -39.6875 372.3125 C-40.61755859 372.30863281 -40.61755859 372.30863281 -41.56640625 372.3046875 C-60.1381683 371.49369352 -79.83771486 359.35546703 -95.6875 350.3125 C-95.6875 349.6525 -95.6875 348.9925 -95.6875 348.3125 C-96.409375 348.044375 -97.13125 347.77625 -97.875 347.5 C-100.68516383 346.31348638 -103.17166557 345.03764361 -105.6875 343.3125 C-105.6875 342.6525 -105.6875 341.9925 -105.6875 341.3125 C-106.76064453 340.94125 -106.76064453 340.94125 -107.85546875 340.5625 C-111.00159706 339.17386405 -113.32560963 337.46786054 -116 335.3125 C-116.88300781 334.61125 -117.76601562 333.91 -118.67578125 333.1875 C-119.33964844 332.56875 -120.00351563 331.95 -120.6875 331.3125 C-120.6875 330.6525 -120.6875 329.9925 -120.6875 329.3125 C-121.27321777 329.05057861 -121.85893555 328.78865723 -122.46240234 328.51879883 C-126.35885215 326.40640488 -129.20722242 323.1201496 -132.3125 320 C-132.993125 319.33548828 -133.67375 318.67097656 -134.375 317.98632812 C-137.80658031 314.55813871 -140.06749236 311.95477995 -141.6875 307.3125 C-142.6775 306.9825 -143.6675 306.6525 -144.6875 306.3125 C-145.66348943 304.93265287 -146.62889925 303.54336761 -147.5234375 302.109375 C-148.79261395 300.15024356 -150.18951247 298.34036863 -151.625 296.5 C-159.6875 285.85257634 -159.6875 285.85257634 -159.6875 281.3125 C-160.3475 281.3125 -161.0075 281.3125 -161.6875 281.3125 C-171.90141368 260.2803188 -171.90141368 260.2803188 -175.6875 249.3125 C-175.96335938 248.57273926 -176.23921875 247.83297852 -176.5234375 247.07080078 C-193.06368825 202.31846636 -187.05955611 151.07706927 -167.6875 108.3125 C-161.58829222 95.50366939 -154.65925649 83.34278571 -145.6875 72.3125 C-144.99011719 71.45011719 -144.29273438 70.58773437 -143.57421875 69.69921875 C-118.98290048 39.5169791 -83.66215563 13.68176272 -45.02929688 4.93212891 C-42.61373444 4.33794254 -42.61373444 4.33794254 -40.07617188 3.31005859 C-27.15388785 -1.29426942 -13.52474199 -0.15393186 0 0 Z M1.61816406 32.28857422 C-9.68657969 32.2410753 -20.34561814 33.56603761 -31.375 36.0625 C-32.43750977 36.30234619 -33.50001953 36.54219238 -34.59472656 36.78930664 C-40.82295362 38.30913902 -46.466666 40.3565827 -52.23803711 43.14990234 C-54.64427052 44.29198183 -57.06742023 45.25836428 -59.5625 46.1875 C-76.74114972 53.01560683 -93.96480337 64.86279213 -106.6875 78.3125 C-107.533125 79.116875 -108.37875 79.92125 -109.25 80.75 C-111.77470358 83.25746168 -111.77470358 83.25746168 -113.6875 86.3125 C-115.6875 89.3125 -115.6875 89.3125 -118.01171875 91.57421875 C-120.93467858 94.5654521 -123.20361436 97.64673878 -125.5 101.125 C-125.93014404 101.7751709 -126.36028809 102.4253418 -126.8034668 103.09521484 C-148.27106385 136.25834926 -157.35391742 178.57316789 -149.5625 217.4375 C-145.13091563 237.75843821 -138.2006239 262.7993761 -123.078125 277.921875 C-121.18027382 279.81972618 -120.05279078 282.00200791 -118.6875 284.3125 C-115.59184471 289.27029277 -112.08622504 292.94272219 -107.5546875 296.63671875 C-105.6875 298.3125 -105.6875 298.3125 -104.0703125 300.51953125 C-103.38582031 301.40705078 -103.38582031 301.40705078 -102.6875 302.3125 C-102.0275 302.3125 -101.3675 302.3125 -100.6875 302.3125 C-100.6875 302.9725 -100.6875 303.6325 -100.6875 304.3125 C-100.0275 304.3125 -99.3675 304.3125 -98.6875 304.3125 C-98.6875 304.9725 -98.6875 305.6325 -98.6875 306.3125 C-97.20113242 307.6731009 -97.20113242 307.6731009 -95.3125 308.9375 C-94.68601563 309.38351562 -94.05953125 309.82953125 -93.4140625 310.2890625 C-91.73527357 311.48246969 -91.73527357 311.48246969 -89.6875 311.3125 C-89.1925 312.7975 -89.1925 312.7975 -88.6875 314.3125 C-87.6975 314.3125 -86.7075 314.3125 -85.6875 314.3125 C-85.6875 314.9725 -85.6875 315.6325 -85.6875 316.3125 C-83.81119137 317.66952392 -83.81119137 317.66952392 -81.375 319 C-77.65578128 321.13790055 -74.10170904 323.3903706 -70.5625 325.8125 C-64.82275458 329.51344854 -58.79675534 331.72215739 -52.38671875 333.953125 C-48.6875 335.3125 -48.6875 335.3125 -45.984375 336.8203125 C-40.94176426 339.10263158 -35.66936348 339.91842062 -30.25 340.9375 C-28.59000977 341.26234375 -28.59000977 341.26234375 -26.89648438 341.59375 C-16.280219 343.64973923 -6.10888966 344.55203957 4.6875 344.5625 C5.76463257 344.56401062 5.76463257 344.56401062 6.86352539 344.56555176 C17.67385916 344.55528611 27.77797347 343.89793816 38.3125 341.3125 C39.54097656 341.08046875 40.76945313 340.8484375 42.03515625 340.609375 C50.7853281 338.79346955 58.62034246 335.63792147 66.75 331.9375 C67.75683838 331.47923828 68.76367676 331.02097656 69.80102539 330.54882812 C75.31454322 327.95638237 80.40195215 325.10656795 85.40698242 321.63208008 C86.89511274 320.60154268 88.43543487 319.64626896 89.9921875 318.72265625 C106.50930102 308.68447783 120.05067406 294.47528604 130.70703125 278.50390625 C132.3125 276.3125 132.3125 276.3125 134.33203125 274.33984375 C137.95217893 270.6340121 139.95430171 265.88224245 142.3125 261.3125 C142.81007813 260.38050781 143.30765625 259.44851563 143.8203125 258.48828125 C162.67024453 222.31812371 165.16906681 180.30705646 153.44824219 141.46435547 C141.27874596 103.89488985 114.68141488 69.56125819 79.3125 51.3125 C54.46290352 39.00048359 29.30408567 32.53442601 1.61816406 32.28857422 Z " fill="#F4F2F1" transform="translate(326.6875,-0.3125)"/>
<path d="M0 0 C2.5625 1.625 2.5625 1.625 4 4 C4.5 7.0625 4.5 7.0625 4 10 C1.73599988 12.26400012 0.05224368 12.98258544 -3 14 C-2.3998774 19.09774476 -1.28044267 23.80271525 0.3125 28.6875 C0.53397705 29.38230469 0.7554541 30.07710937 0.98364258 30.79296875 C2.34432493 35.04247688 3.7587666 39.27288276 5.1875 43.5 C6.46479999 47.28610038 7.53875628 51.03971419 8.453125 54.92578125 C9.10348888 57.39251854 9.91980846 59.77518114 10.75 62.1875 C12.93759172 68.60443571 14.76819333 75.10584656 16.54199219 81.6472168 C18.93072573 90.24682413 21.97694642 98.60774305 25 107 C25.01395309 106.42228348 25.02790619 105.84456696 25.0422821 105.24934387 C25.1924177 99.22983462 25.3763501 93.21202893 25.57983398 87.1940918 C25.65131807 84.94890806 25.71421574 82.70343367 25.76831055 80.45776367 C25.84762761 77.22720126 25.95790885 73.99894745 26.07421875 70.76953125 C26.09215988 69.76727005 26.11010101 68.76500885 26.12858582 67.7323761 C26.3272765 63.02057932 26.4597091 60.7042105 29.3972168 56.87548828 C32.18579963 54.8661183 33.72751475 54.27549219 37.125 54.0625 C38.39730469 53.95615234 38.39730469 53.95615234 39.6953125 53.84765625 C42 54 42 54 45 56 C48.64787824 66.56233388 48.89729564 78.31858966 49.6875 89.375 C49.81748226 91.09381656 49.9483364 92.81256741 50.08007812 94.53125 C50.39674436 98.68681341 50.70170687 102.84307903 51 107 C51.7997437 104.94071189 52.59754185 102.88066815 53.39453125 100.8203125 C54.06125854 99.09965576 54.06125854 99.09965576 54.74145508 97.34423828 C57.04260998 91.22954967 58.84160639 85.2756055 59.8125 78.8125 C60.6944568 73.52817061 62.59129929 68.88068128 64.68017578 63.98974609 C66.99990626 58.39210481 68.41674407 52.7406524 69.61865234 46.81005859 C70.53106051 42.43910902 71.95838499 38.94985819 74 35 C75.00018829 32.34373401 75.84958316 29.64870526 76.6875 26.9375 C76.91244141 26.24333984 77.13738281 25.54917969 77.36914062 24.83398438 C78.51263743 21.17409945 79.5435683 17.84073916 79 14 C77.34467377 12.98133771 75.67739862 11.98189187 74 11 C72.78591264 7.92431203 72.87517041 6.42250015 73.8125 3.25 C75 1 75 1 77 0 C82.52331812 -0.57534564 86.22070375 0.68055812 91.2734375 2.87109375 C94.08452341 4.03499608 96.90307195 4.92585372 99.8125 5.8125 C117.92105581 11.7866962 134.65243079 24.89351578 145 41 C145.6875 43.26171875 145.6875 43.26171875 146 45 C146.66 45 147.32 45 148 45 C149.44647391 47.6412553 150.88217356 50.28751536 152.3125 52.9375 C152.71662109 53.67291016 153.12074219 54.40832031 153.53710938 55.16601562 C158.36376626 64.15223047 163.52916774 76.11072804 161.98046875 86.55078125 C158.46321677 95.33690472 148.72454605 102.37456806 141.5078125 107.96484375 C138.94383427 109.96181881 138.94383427 109.96181881 136.69140625 112.390625 C125.88471656 122.86793809 111.8298127 129.5158784 98 135 C96.87851562 135.46921875 95.75703125 135.9384375 94.6015625 136.421875 C76.0204562 143.71034769 55.82414953 146.23487095 36 146.3125 C35.31257721 146.31578308 34.62515442 146.31906616 33.91690063 146.32244873 C23.07891078 146.3391806 13.37761581 145.1514468 3 142 C1.3376299 141.68476537 -0.32891201 141.39016438 -2 141.125 C-31.73313235 135.27916381 -59.09602613 116.18838168 -80 95 C-80.60585937 94.47277344 -81.21171875 93.94554687 -81.8359375 93.40234375 C-84.5719589 90.79826247 -85.915982 89.03863635 -86.2265625 85.19921875 C-85.99650624 82.07759323 -85.56723157 79.07753301 -85 76 C-84.86980469 75.18917969 -84.73960937 74.37835938 -84.60546875 73.54296875 C-82.10049917 60.17532733 -73.85742943 45.24080235 -65 35 C-63.72189453 33.48986328 -63.72189453 33.48986328 -62.41796875 31.94921875 C-50.51378051 18.25220699 -36.04308442 9.26832425 -18.6796875 3.87890625 C-16.42918815 3.14076871 -14.42717263 2.29759128 -12.3125 1.25 C-8.09839866 -0.34022692 -4.45100459 -0.76474789 0 0 Z M98.125 98.4375 C93.42424668 99.99424298 88.92954267 101.32778964 84 102 C87.95637948 104.63758632 89.39224408 103.89182373 94 103 C94.72960937 102.86335938 95.45921875 102.72671875 96.2109375 102.5859375 C101.13954193 101.59348814 105.44783393 100.13080114 110 98 C110 97.34 110 96.68 110 96 C105.64222976 96 102.19773544 97.081167 98.125 98.4375 Z M72 101 C72.33 101.66 72.66 102.32 73 103 C74.65 102.67 76.3 102.34 78 102 C78 101.67 78 101.34 78 101 C76.02 101 74.04 101 72 101 Z " fill="#F5F3F2" transform="translate(293,185)"/>
<path d="M0 0 C2.8125 2.375 2.8125 2.375 5 5 C5.55042969 5.63421875 6.10085938 6.2684375 6.66796875 6.921875 C16.6653098 18.94426381 19.39117956 31.5040007 19.0625 46.8125 C19.02792835 48.81893608 18.99782123 50.82545515 18.97265625 52.83203125 C18.95468994 53.70577393 18.93672363 54.5795166 18.91821289 55.47973633 C19.00300945 58.09273586 19.44306307 60.45006614 20 63 C20.79403605 72.203008 19.08175623 78.83648754 15 87 C14.34 87 13.68 87 13 87 C12.62875 88.0828125 12.62875 88.0828125 12.25 89.1875 C11 92 11 92 9.0625 94.375 C7.11571908 96.85272117 6.01128679 99.13291115 4.84375 102.0390625 C2.34339047 107.85008326 -0.84230443 113.23087862 -5 118 C-5.47953125 118.60457031 -5.9590625 119.20914063 -6.453125 119.83203125 C-12.54529109 127.27643047 -20.40488718 133.99037779 -30.1640625 135.484375 C-42.54998602 136.43498764 -52.70157784 135.47896941 -63 128 C-70.5661888 120.92401499 -75.40729402 113.13522826 -80.09570312 104.04980469 C-84.069241 96.36218177 -88.37185534 89.10096197 -93.25 81.953125 C-101.07663318 68.74568152 -96.91717688 41.75047903 -94 27 C-91.73478588 19.17005233 -87.84175163 12.50773069 -83 6 C-82.2575 4.96875 -81.515 3.9375 -80.75 2.875 C-74.57689028 -3.57870561 -67.65952699 -7.88500032 -59 -10 C-57.90300781 -10.27714844 -56.80601562 -10.55429687 -55.67578125 -10.83984375 C-35.38906927 -15.59899672 -17.33150393 -11.47591286 0 0 Z M-12 31 C-12.23074219 31.78246094 -12.46148437 32.56492188 -12.69921875 33.37109375 C-14 36 -14 36 -16.20703125 37.22265625 C-17.06683594 37.49980469 -17.92664063 37.77695313 -18.8125 38.0625 C-22.92776868 39.54022881 -25.71110195 41.05730175 -29 44 C-37.72397358 51.75464318 -49.3216096 56.59023192 -61 57 C-61 54.36 -61 51.72 -61 49 C-64.36179774 50.44077046 -66.59156268 52.24750021 -69 55 C-69 55.66 -69 56.32 -69 57 C-69.66 57 -70.32 57 -71 57 C-71 57.66 -71 58.32 -71 59 C-71.9590625 59.4640625 -71.9590625 59.4640625 -72.9375 59.9375 C-74.93610821 60.8345163 -74.93610821 60.8345163 -76 62 C-76.19277724 72.94699323 -74.24956285 81.88577564 -70 92 C-69.74089844 92.69609375 -69.48179687 93.3921875 -69.21484375 94.109375 C-64.99107161 105.13670826 -56.6583419 113.52774325 -47 120 C-41.0640701 122.39519978 -35.090327 123.15887263 -29 120.875 C-20.5743977 116.06965369 -20.5743977 116.06965369 -16 108 C-15.34 108 -14.68 108 -14 108 C-2.7236753 93.9627195 1.42718518 71.49768126 0 54 C-0.96256957 50.45395356 -2.4106859 47.30296229 -4 44 C-4.71915447 42.19176627 -5.42765876 40.37925743 -6.125 38.5625 C-7.23646815 35.70115843 -8.27701831 33.58447253 -10 31 C-10.66 31 -11.32 31 -12 31 Z M-61 47 C-60 49 -60 49 -60 49 Z " fill="#F4F2F0" transform="translate(369,58)"/>
<path d="M0 0 C3.75809907 1.25269969 4.01496975 2.35167447 5.875 5.75 C8.22471845 9.80024819 10.41913756 12.91879278 14 16 C14.68191406 16.5878125 15.36382812 17.175625 16.06640625 17.78125 C23.00764252 23.5127615 29.00623943 25.71379052 38 25 C45.00643687 22.28321836 50.24047123 18.44490647 54 12 C56.08203125 11.359375 56.08203125 11.359375 58 11 C56.02974116 13.68989239 54.01971421 16.34710308 52 19 C51.50886719 19.67804688 51.01773438 20.35609375 50.51171875 21.0546875 C47.76874492 24.61833544 46.66326088 25.83953366 42.125 26.9375 C41.09375 26.958125 40.0625 26.97875 39 27 C39.99 27.66 40.98 28.32 42 29 C41.505 30.485 41.505 30.485 41 32 C41.66 32.66 42.32 33.32 43 34 C43 35.66666667 43 37.33333333 43 39 C29.50283382 40.45808803 18.32831234 40.22690118 7 32 C1.39195749 26.75529546 -3.84472349 21.06180934 -7 14 C-6.67 13.34 -6.34 12.68 -6 12 C-4.35 13.65 -2.7 15.3 -1 17 C-0.34 16.67 0.32 16.34 1 16 C1 15.01 1 14.02 1 13 C3.5 11.3125 3.5 11.3125 6 10 C5.34 10 4.68 10 4 10 C2.68 6.7 1.36 3.4 0 0 Z " fill="#F6F3F2" transform="translate(299,154)"/>
<path d="M0 0 C2.15542211 2.94822105 2.23547364 4.69872927 2.19921875 8.32421875 C2.20953125 9.35546875 2.21984375 10.38671875 2.23046875 11.44921875 C1.57267625 15.00903697 0.51084536 16.10659777 -2.30078125 18.32421875 C-6.71600022 21.11697774 -11.23847712 20.83523999 -16.30078125 20.32421875 C-19.83304115 19.12577343 -21.60846902 18.36268709 -23.67578125 15.26171875 C-24.80091451 9.97359242 -25.64083408 4.52190539 -22.73828125 -0.23828125 C-16.72387837 -3.7852368 -5.80028665 -4.224657 0 0 Z " fill="#F4F1F1" transform="translate(342.30078125,211.67578125)"/>
<path d="M0 0 C3.75809907 1.25269969 4.01496975 2.35167447 5.875 5.75 C8.195091 9.78144526 10.50852783 12.87605121 14 16 C15.33333333 17.33333333 16.66666667 18.66666667 18 20 C17.67 20.66 17.34 21.32 17 22 C16.21625 21.649375 15.4325 21.29875 14.625 20.9375 C13.75875 20.628125 12.8925 20.31875 12 20 C11.34 20.33 10.68 20.66 10 21 C9.34227572 24.02934491 9.34227572 24.02934491 9 27 C8.34 27 7.68 27 7 27 C7.34786708 28.97536745 7.34786708 28.97536745 8 31 C8.66 31.33 9.32 31.66 10 32 C3.9738067 31.26042173 0.56660505 25.42886122 -3 21 C-4.63305646 18.67310609 -5.8090369 16.59846494 -7 14 C-6.67 13.34 -6.34 12.68 -6 12 C-4.35 13.65 -2.7 15.3 -1 17 C-0.34 16.67 0.32 16.34 1 16 C1 15.01 1 14.02 1 13 C3.5 11.3125 3.5 11.3125 6 10 C5.34 10 4.68 10 4 10 C2.68 6.7 1.36 3.4 0 0 Z " fill="#F4F1F1" transform="translate(299,154)"/>
<path d="M0 0 C8.02638522 -0.61741425 8.02638522 -0.61741425 11.5625 1.625 C13.42799134 4.70711612 13.60285455 6.45822952 13 10 C10.73599988 12.26400012 9.05224368 12.98258544 6 14 C5.67 15.65 5.34 17.3 5 19 C3 15.25 3 15.25 3 13 C3.66 12.67 4.32 12.34 5 12 C4.67 10.02 4.34 8.04 4 6 C3.01 5.67 2.02 5.34 1 5 C0.01 4.67 -0.98 4.34 -2 4 C-1.34 2.68 -0.68 1.36 0 0 Z " fill="#E4DFE0" transform="translate(284,185)"/>
<path d="M0 0 C2.375 0.25 2.375 0.25 5 1 C6.7941758 3.56310828 7 4.83119306 7 8 C7.66 8 8.32 8 9 8 C7.74458443 10.51083114 6.49936512 10.87125446 4 12 C4.33 13.32 4.66 14.64 5 16 C1.41209425 15.70100785 0.21833224 15.23013399 -2.3125 12.5625 C-4 10 -4 10 -4 8 C-3.34 8 -2.68 8 -2 8 C-2.33 6.68 -2.66 5.36 -3 4 C-1.68 3.34 -0.36 2.68 1 2 C0.67 1.34 0.34 0.68 0 0 Z " fill="#F6F3F2" transform="translate(296,156)"/>
<path d="M0 0 C0.66 0.33 1.32 0.66 2 1 C0.16435815 3.30886972 -1.69109255 5.59540713 -3.5625 7.875 C-4.07619141 8.52597656 -4.58988281 9.17695313 -5.11914062 9.84765625 C-8.69154659 14.1522945 -11.28190645 16.06431196 -17 17 C-19.87109375 17.1953125 -19.87109375 17.1953125 -22.4375 17.125 C-23.30246094 17.10695312 -24.16742188 17.08890625 -25.05859375 17.0703125 C-25.69925781 17.04710937 -26.33992188 17.02390625 -27 17 C-27.33 16.34 -27.66 15.68 -28 15 C-26.76636719 14.90525391 -26.76636719 14.90525391 -25.5078125 14.80859375 C-17.17240575 13.89420155 -11.11991772 11.89544198 -5 6 C-3.97836774 4.34650513 -2.97461661 2.68163618 -2 1 C-1.34 0.67 -0.68 0.34 0 0 Z " fill="#D5CFD0" transform="translate(355,165)"/>
<path d="M0 0 C-9.99093993 8.10076211 -27.55026344 9.13210971 -40 10 C-40 9.34 -40 8.68 -40 8 C-39.04287109 7.90912109 -39.04287109 7.90912109 -38.06640625 7.81640625 C-36.82697266 7.69072266 -36.82697266 7.69072266 -35.5625 7.5625 C-34.73878906 7.48128906 -33.91507812 7.40007812 -33.06640625 7.31640625 C-31.01337975 7.21069185 -31.01337975 7.21069185 -30 6 C-27.48139969 5.50755283 -24.96681491 5.05482006 -22.4375 4.625 C-17.9333479 3.83193154 -13.6230201 3.06657484 -9.375 1.3125 C-5.96895577 -0.01207275 -3.61468866 -0.27110165 0 0 Z " fill="#DAD5D5" transform="translate(388,320)"/>
<path d="M0 0 C1.2512293 3.75368789 0.58879327 4.41662674 -1.125 7.875 C-3.65311314 13.16999252 -5.79019537 18.54053284 -7.86328125 24.02734375 C-9.15179982 27.39697478 -10.54220727 30.70078488 -12 34 C-13.5 32.6875 -13.5 32.6875 -15 31 C-15 30.01 -15 29.02 -15 28 C-14.01 28 -13.02 28 -12 28 C-11.608125 26.7625 -11.21625 25.525 -10.8125 24.25 C-7.98513487 15.79457786 -4.66936847 7.60934121 0 0 Z " fill="#E2DFDF" transform="translate(193,111)"/>
<path d="M0 0 C0 0.66 0 1.32 0 2 C-0.66 2 -1.32 2 -2 2 C-2.66 3.32 -3.32 4.64 -4 6 C-4.66 6 -5.32 6 -6 6 C-6 6.66 -6 7.32 -6 8 C-6.66 8 -7.32 8 -8 8 C-8 8.66 -8 9.32 -8 10 C-8.639375 10.433125 -9.27875 10.86625 -9.9375 11.3125 C-12.49927596 13.40849852 -12.65221564 14.78299472 -13 18 C-13.66 18 -14.32 18 -15 18 C-15.36934673 11.47487437 -15.36934673 11.47487437 -13.6875 9.3125 C-13.130625 8.879375 -12.57375 8.44625 -12 8 C-10.03813622 5.58539842 -8.99584691 3.98754074 -8 1 C-5.32916926 -0.33541537 -2.92701445 0 0 0 Z " fill="#D6D2D2" transform="translate(306,107)"/>
<path d="M0 0 C0 0.66 0 1.32 0 2 C-14.4 7 -14.4 7 -21 7 C-21 7.99 -21 8.98 -21 10 C-21.99 10 -22.98 10 -24 10 C-23.67 8.35 -23.34 6.7 -23 5 C-18.05 4.01 -18.05 4.01 -13 3 C-13 2.34 -13 1.68 -13 1 C-11.39602723 0.83147753 -9.7918131 0.66525114 -8.1875 0.5 C-7.29417969 0.4071875 -6.40085937 0.314375 -5.48046875 0.21875 C-3 0 -3 0 0 0 Z " fill="#D7CDD4" transform="translate(392,282)"/>
<path d="M0 0 C0.33 0.99 0.66 1.98 1 3 C-0.28716647 4.00578589 -1.57988658 5.00446798 -2.875 6 C-3.59429687 6.556875 -4.31359375 7.11375 -5.0546875 7.6875 C-7 9 -7 9 -9 9 C-9.33 9.99 -9.66 10.98 -10 12 C-11.32384424 12.68531646 -12.65837191 13.3501875 -14 14 C-15.56252106 15.60682263 -15.56252106 15.60682263 -16.9375 17.4375 C-19.33790795 20.36929597 -21.56713649 22.28356825 -25 24 C-23.42840852 20.14245727 -20.98922513 17.85637068 -18 15 C-17.50628906 14.4740625 -17.01257813 13.948125 -16.50390625 13.40625 C-11.54592789 8.17481 -5.90219534 4.10912334 0 0 Z " fill="#DED9DA" transform="translate(218,36)"/>
<path d="M0 0 C0.66 0 1.32 0 2 0 C2.40151318 21.86016175 2.40151318 21.86016175 -1 31 C-1.66 31 -2.32 31 -3 31 C-3 30.01 -3 29.02 -3 28 C-2.34 28 -1.68 28 -1 28 C-1.2784375 26.7934375 -1.2784375 26.7934375 -1.5625 25.5625 C-1.99910574 22.00728185 -1.78796304 19.17347942 -1.32421875 15.65625 C-0.68955703 10.45661179 -0.3794483 5.2234691 0 0 Z " fill="#D8D2D4" transform="translate(519,190)"/>
<path d="M0 0 C-8.76076025 3.99364386 -18.21678652 8 -28 8 C-28 7.34 -28 6.68 -28 6 C-26.9378125 5.74605469 -25.875625 5.49210937 -24.78125 5.23046875 C-15.8787552 3.15543878 -15.8787552 3.15543878 -7.25 0.1875 C-3.90353972 -1.0352451 -3.19612823 -1.02137141 0 0 Z " fill="#CDC5C8" transform="translate(387,336)"/>
<path d="M0 0 C-0.33 1.65 -0.66 3.3 -1 5 C-1.6290625 4.97679687 -2.258125 4.95359375 -2.90625 4.9296875 C-8.67016398 4.80815919 -13.47263742 5.36226294 -19 7 C-19 6.34 -19 5.68 -19 5 C-16.58570231 4.15919981 -14.16896007 3.32718598 -11.75 2.5 C-10.72712891 2.14228516 -10.72712891 2.14228516 -9.68359375 1.77734375 C-6.23586997 0.60578713 -3.68297096 0 0 0 Z " fill="#D6CFD0" transform="translate(298,1)"/>
<path d="M0 0 C0.99 0.33 1.98 0.66 3 1 C2.360625 1.763125 1.72125 2.52625 1.0625 3.3125 C-1.14232781 5.88246713 -1.14232781 5.88246713 -2 9 C-3.84765625 10.82421875 -3.84765625 10.82421875 -6.0625 12.6875 C-6.79597656 13.31011719 -7.52945312 13.93273437 -8.28515625 14.57421875 C-8.85105469 15.04472656 -9.41695313 15.51523437 -10 16 C-10.33 15.01 -10.66 14.02 -11 13 C-10.45730469 12.39671875 -9.91460937 11.7934375 -9.35546875 11.171875 C-8.64003906 10.37265625 -7.92460937 9.5734375 -7.1875 8.75 C-6.47980469 7.96109375 -5.77210938 7.1721875 -5.04296875 6.359375 C-3.25831065 4.2983167 -1.60240938 2.20394477 0 0 Z " fill="#DFDCDD" transform="translate(455,281)"/>
<path d="M0 0 C2.06723714 3.10085571 2.24497423 3.72931681 2.1953125 7.23046875 C2.18886719 8.03291016 2.18242187 8.83535156 2.17578125 9.66210938 C2.15902344 10.49548828 2.14226562 11.32886719 2.125 12.1875 C2.11597656 13.03248047 2.10695313 13.87746094 2.09765625 14.74804688 C2.07410703 16.83215243 2.03823647 18.91611217 2 21 C1.01 21 0.02 21 -1 21 C-1.16682272 16.07872966 -1.24828052 12.49656104 1 8 C0.34 8 -0.32 8 -1 8 C-1.04241723 5.66705225 -1.04092937 3.33297433 -1 1 C-0.67 0.67 -0.34 0.34 0 0 Z " fill="#D6D3D4" transform="translate(339,252)"/>
<path d="M0 0 C1.33333333 0.66666667 2.66666667 1.33333333 4 2 C4.99 1.34 5.98 0.68 7 0 C7.99 0.33 8.98 0.66 10 1 C7.42474285 2.53617083 4.841326 4.05388201 2.25 5.5625 C1.52039063 6.00013672 0.79078125 6.43777344 0.0390625 6.88867188 C-0.66992188 7.29794922 -1.37890625 7.70722656 -2.109375 8.12890625 C-3.08342285 8.70233765 -3.08342285 8.70233765 -4.07714844 9.28735352 C-6.4410801 10.16347293 -7.65942846 9.82193222 -10 9 C-8.7934375 8.319375 -8.7934375 8.319375 -7.5625 7.625 C-4.91143428 6.25274335 -4.91143428 6.25274335 -4 4 C-3.01 4 -2.02 4 -1 4 C-0.67 2.68 -0.34 1.36 0 0 Z " fill="#F2EAEB" transform="translate(411,354)"/>
<path d="M0 0 C0.99 0.99 1.98 1.98 3 3 C2.67 3.99 2.34 4.98 2 6 C3.98 6.99 5.96 7.98 8 9 C7.71848084 11.12636813 7.42446737 13.25108528 7.125 15.375 C6.96257812 16.55835938 6.80015625 17.74171875 6.6328125 18.9609375 C6 22 6 22 4 24 C4.33 19.38 4.66 14.76 5 10 C3.35 9.01 1.7 8.02 0 7 C-0.875 4.4375 -0.875 4.4375 -1 2 C-0.67 1.34 -0.34 0.68 0 0 Z " fill="#D4CFCF" transform="translate(367,189)"/>
<path d="M0 0 C9.05268156 1.4329198 18.02286105 3.16042235 27 5 C26.67 5.66 26.34 6.32 26 7 C20.86090113 7.20975914 16.8836498 6.57270078 12 5 C10.71609375 4.63841797 10.71609375 4.63841797 9.40625 4.26953125 C8.5090625 4.01558594 7.611875 3.76164062 6.6875 3.5 C5.42486328 3.14421875 5.42486328 3.14421875 4.13671875 2.78125 C2 2 2 2 0 0 Z " fill="#C6C0C2" transform="translate(281,337)"/>
<path d="M0 0 C0.66 0 1.32 0 2 0 C1.979375 0.9075 1.95875 1.815 1.9375 2.75 C1.9889755 5.42672588 2.2215017 7.46988052 3 10 C1.35 10.33 -0.3 10.66 -2 11 C-1.773125 11.598125 -1.54625 12.19625 -1.3125 12.8125 C-1.1578125 13.8953125 -1.1578125 13.8953125 -1 15 C-2.48046875 16.63671875 -2.48046875 16.63671875 -4 18 C-3.48914188 11.56318772 -2.27057103 6.04057576 0 0 Z " fill="#DED8D9" transform="translate(352,270)"/>
<path d="M0 0 C0.66 0 1.32 0 2 0 C2 5.94 2 11.88 2 18 C1.67 18 1.34 18 1 18 C1 16.02 1 14.04 1 12 C0.01 12 -0.98 12 -2 12 C-2.05422947 10.5629191 -2.09289723 9.12524538 -2.125 7.6875 C-2.14820313 6.88699219 -2.17140625 6.08648437 -2.1953125 5.26171875 C-2 3 -2 3 0 0 Z " fill="#DAD5D6" transform="translate(322,242)"/>
<path d="M0 0 C0.66 0.33 1.32 0.66 2 1 C1.54554036 2.41791408 1.08625056 3.83428046 0.625 5.25 C0.36976563 6.03890625 0.11453125 6.8278125 -0.1484375 7.640625 C-0.95173667 9.86627958 -1.89711662 11.90931672 -3 14 C-3.66 14 -4.32 14 -5 14 C-4.79375 14.78375 -4.5875 15.5675 -4.375 16.375 C-4.189375 17.674375 -4.189375 17.674375 -4 19 C-4.66 19.66 -5.32 20.32 -6 21 C-6.33 18.03 -6.66 15.06 -7 12 C-6.01 12.33 -5.02 12.66 -4 13 C-3.67 9.7 -3.34 6.4 -3 3 C-2.01 2.67 -1.02 2.34 0 2 C0 1.34 0 0.68 0 0 Z " fill="#CAC5C6" transform="translate(347,289)"/>
<path d="M0 0 C5.00235652 1.28265552 8.62540079 3.64018853 12.80859375 6.53515625 C15.4507043 8.30127293 18.11859499 9.67012076 21 11 C19 12 19 12 17.1953125 11.546875 C13.34122402 10.06341453 10.23517614 8.60901301 7 6 C4.69412307 4.61345962 2.35043715 3.31082072 0 2 C0 1.34 0 0.68 0 0 Z " fill="#D8CFD0" transform="translate(247,320)"/>
<path d="M0 0 C0.99 0.33 1.98 0.66 3 1 C3.33 3.97 3.66 6.94 4 10 C3.01 9.34 2.02 8.68 1 8 C-0.65549531 7.61500109 -2.3222433 7.27206865 -4 7 C-4 5.35 -4 3.7 -4 2 C-3.34 1.67 -2.68 1.34 -2 1 C-1.67 1.66 -1.34 2.32 -1 3 C-0.67 2.01 -0.34 1.02 0 0 Z " fill="#E7E6E5" transform="translate(317,298)"/>
<path d="M0 0 C0.89525391 0.32484375 0.89525391 0.32484375 1.80859375 0.65625 C10.58172321 3.47199437 18.90209825 3.28797579 28 3 C28 3.66 28 4.32 28 5 C18.3472674 6.1356156 8.7921084 6.81230876 0 2 C0 1.34 0 0.68 0 0 Z " fill="#CFC5C6" transform="translate(313,188)"/>
<path d="M0 0 C0.99 0.33 1.98 0.66 3 1 C1.41078475 6.36095277 -0.18972938 11.70843973 -2 17 C-2.66 17 -3.32 17 -4 17 C-2.07289294 5.47835991 -2.07289294 5.47835991 0 0 Z " fill="#D8D3D4" transform="translate(365,225)"/>
<path d="M0 0 C3.8234006 1.27446687 4.04975237 2.56756418 6 6 C6.721875 6.886875 7.44375 7.77375 8.1875 8.6875 C10 11 10 11 10 13 C7.03885694 11.62518358 4.54159154 10.0496706 2 8 C1.401875 7.54625 0.80375 7.0925 0.1875 6.625 C-1 5 -1 5 -0.6875 2.3125 C-0.460625 1.549375 -0.23375 0.78625 0 0 Z " fill="#DCD6D8" transform="translate(203,278)"/>
<path d="M0 0 C3.25019121 0.44610468 6.47556523 0.89023458 9.6875 1.5625 C12.26279328 2.12392778 12.26279328 2.12392778 16 2 C16.33 2.99 16.66 3.98 17 5 C10.48208608 5.3540919 5.82478551 5.03901852 0 2 C0 1.34 0 0.68 0 0 Z " fill="#DDD7DB" transform="translate(291,372)"/>
<path d="M0 0 C3.43338516 1.20632452 5.50364585 2.38477184 8 5 C8.66 5 9.32 5 10 5 C10 5.66 10 6.32 10 7 C8.02 7.99 8.02 7.99 6 9 C5.54625 8.195625 5.0925 7.39125 4.625 6.5625 C3.25274335 3.91143428 3.25274335 3.91143428 1 3 C0.34 4.98 -0.32 6.96 -1 9 C-1.99 9 -2.98 9 -4 9 C-4 8.01 -4 7.02 -4 6 C-3.01 6 -2.02 6 -1 6 C-0.67 4.02 -0.34 2.04 0 0 Z " fill="#C9C4C4" transform="translate(356,86)"/>
<path d="M0 0 C0 0.66 0 1.32 0 2 C-6.07027358 4.1583195 -11.59370576 4.20852314 -18 4 C-18 3.34 -18 2.68 -18 2 C-17.278125 2.020625 -16.55625 2.04125 -15.8125 2.0625 C-13.05790412 2.00128676 -10.68218606 1.60349186 -8 1 C-5.20352306 0.40075494 -2.87126759 0 0 0 Z " fill="#E5DEDE" transform="translate(367,373)"/>
<path d="M0 0 C3.25953128 1.62976564 3.90102318 5.07663241 5.1875 8.3125 C5.47302734 8.98990234 5.75855469 9.66730469 6.05273438 10.36523438 C8.07770699 15.40549469 8.07770699 15.40549469 7.67578125 18.48046875 C7.45277344 18.98191406 7.22976562 19.48335937 7 20 C5.99267601 18.06629769 4.99436712 16.12789694 4 14.1875 C3.443125 13.10855469 2.88625 12.02960938 2.3125 10.91796875 C1 8 1 8 1 5 C0.34 4.67 -0.32 4.34 -1 4 C-0.67 2.68 -0.34 1.36 0 0 Z " fill="#C9C6C6" transform="translate(181,235)"/>
<path d="M0 0 C3.98363358 1.32787786 6.10630834 3.00985195 9 6 C9.99 6.33 10.98 6.66 12 7 C12 7.66 12 8.32 12 9 C13.32 9.66 14.64 10.32 16 11 C15.34 11.66 14.68 12.32 14 13 C14 12.34 14 11.68 14 11 C13.44828125 10.91621094 12.8965625 10.83242188 12.328125 10.74609375 C9.24581146 9.75830535 7.26098716 8.09258173 4.75 6.0625 C3.85796875 5.35222656 2.9659375 4.64195312 2.046875 3.91015625 C1.37140625 3.27980469 0.6959375 2.64945312 0 2 C0 1.34 0 0.68 0 0 Z " fill="#CCC8CA" transform="translate(229,307)"/>
<path d="M0 0 C1 3 1 3 0.14453125 5.0859375 C-2.32217703 9.32491418 -4.80579578 13.25507092 -8 17 C-8.66 17.99 -9.32 18.98 -10 20 C-10.66 20 -11.32 20 -12 20 C-10.59726615 17.04089954 -8.9757693 14.38693812 -7.125 11.6875 C-4.55361433 7.88084082 -2.22312432 4.01872472 0 0 Z " fill="#D5D0D0" transform="translate(372,159)"/>
<path d="M0 0 C0.99 0.33 1.98 0.66 3 1 C4.09765625 3.765625 4.09765625 3.765625 5.0625 7.25 C6.19542264 11.27210285 7.37135484 15.14915899 9 19 C8.01 18.67 7.02 18.34 6 18 C4.6484375 15.234375 4.6484375 15.234375 3.375 11.75 C2.94960937 10.61046875 2.52421875 9.4709375 2.0859375 8.296875 C1.17150721 5.52069097 0.48659278 2.87630397 0 0 Z " fill="#C7BEBE" transform="translate(150,244)"/>
<path d="M0 0 C0.66 0 1.32 0 2 0 C2.69784331 2.434964 3.38353822 4.87227105 4.0625 7.3125 C4.26166016 8.00279297 4.46082031 8.69308594 4.66601562 9.40429688 C6.11328125 14.66015625 6.11328125 14.66015625 5 18 C1.90787824 11.91643021 0.43300764 6.81987029 0 0 Z " fill="#C9C3C4" transform="translate(301,244)"/>
<path d="M0 0 C1.92759992 1.67617384 2.90534623 2.59772148 3.5 5.125 C3.665 5.74375 3.83 6.3625 4 7 C4.99 7.33 5.98 7.66 7 8 C7 8.99 7 9.98 7 11 C6.34 11 5.68 11 5 11 C5.33 12.32 5.66 13.64 6 15 C3.62317631 12.86285601 2.40068998 11.06221946 1.3125 8.0625 C1.06113281 7.39347656 0.80976563 6.72445312 0.55078125 6.03515625 C0 4 0 4 0 0 Z " fill="#D6D1D2" transform="translate(476,129)"/>
<path d="M0 0 C0.66 0.66 1.32 1.32 2 2 C1.34 2 0.68 2 0 2 C0.20625 2.845625 0.4125 3.69125 0.625 4.5625 C1.05843012 8.53560946 0.2762763 11.24624618 -1 15 C-1.66 15 -2.32 15 -3 15 C-3.08078641 12.87561661 -3.13909141 10.7503677 -3.1875 8.625 C-3.22230469 7.44164063 -3.25710938 6.25828125 -3.29296875 5.0390625 C-3.19628906 4.03617187 -3.09960938 3.03328125 -3 2 C-2.01 1.34 -1.02 0.68 0 0 Z " fill="#CBC3C6" transform="translate(311,100)"/>
<path d="M0 0 C0.66 0 1.32 0 2 0 C1.52042767 4.28553996 -1.2187222 6.76931405 -4.0625 9.75 C-4.53494141 10.25660156 -5.00738281 10.76320313 -5.49414062 11.28515625 C-6.65630711 12.52949613 -7.82730161 13.76558064 -9 15 C-9 14.01 -9 13.02 -9 12 C-8 11 -7 10 -6 9 C-4.95377125 7.02379014 -3.94560065 5.0262871 -3 3 C-2.01 3 -1.02 3 0 3 C0 2.01 0 1.02 0 0 Z " fill="#E9E3E4" transform="translate(478,303)"/>
<path d="M0 0 C1.03089037 2.67658885 1.09652951 3.75161308 0.0390625 6.47265625 C-0.66089844 7.75462891 -0.66089844 7.75462891 -1.375 9.0625 C-2.81380945 11.73514883 -4.0378454 14.11353621 -5 17 C-5.99 17 -6.98 17 -8 17 C-6.51095825 13.10391502 -4.75621287 9.40902982 -2.875 5.6875 C-2.06675781 4.08455078 -2.06675781 4.08455078 -1.2421875 2.44921875 C-0.62730469 1.23685547 -0.62730469 1.23685547 0 0 Z " fill="#E4E0E0" transform="translate(473,252)"/>
<path d="M0 0 C-5.59675416 4.92514366 -11.89909367 5.24915461 -19 5 C-19 4.67 -19 4.34 -19 4 C-16.96185767 3.32263519 -14.91929445 2.65856466 -12.875 2 C-11.73804688 1.62875 -10.60109375 1.2575 -9.4296875 0.875 C-6.12104059 0.03088051 -3.39471984 -0.16509276 0 0 Z " fill="#D5C9C9" transform="translate(388,320)"/>
<path d="M0 0 C0 2.31 0 4.62 0 7 C-0.66 7 -1.32 7 -2 7 C-2 5.68 -2 4.36 -2 3 C-5.3 3.66 -8.6 4.32 -12 5 C-12 4.34 -12 3.68 -12 3 C-10.56445975 2.49440092 -9.1264798 1.9957251 -7.6875 1.5 C-6.88699219 1.2215625 -6.08648437 0.943125 -5.26171875 0.65625 C-3 0 -3 0 0 0 Z " fill="#BAB4B5" transform="translate(405,278)"/>
<path d="M0 0 C0.99 0.33 1.98 0.66 3 1 C2.54625 2.19625 2.0925 3.3925 1.625 4.625 C0.65796841 7.19766893 -0.25545638 9.76636915 -1.125 12.375 C-2 15 -2 15 -3 17 C-3.66 17 -4.32 17 -5 17 C-1.92482916 5.47835991 -1.92482916 5.47835991 0 0 Z " fill="#CEC8C8" transform="translate(364,143)"/>
<path d="M0 0 C0.66 0 1.32 0 2 0 C1.41509121 6.14154225 0.45933748 12.00679849 -1 18 C-1.66 17.34 -2.32 16.68 -3 16 C-2.79296875 13.06640625 -2.79296875 13.06640625 -2.1875 9.5625 C-1.99542969 8.40878906 -1.80335938 7.25507813 -1.60546875 6.06640625 C-1 3 -1 3 0 0 Z " fill="#D2CDCD" transform="translate(369,123)"/>
<path d="M0 0 C4.69765371 1.28117829 7.21802661 3.99527893 10.44921875 7.44140625 C11.93510225 9.10030545 11.93510225 9.10030545 14 10 C13.67 10.99 13.34 11.98 13 13 C8.04050763 9.17410588 3.61734287 5.1404346 0 0 Z " fill="#EBE7E9" transform="translate(429,66)"/>
<path d="M0 0 C-1.95585325 1.00484204 -3.91476237 2.00373805 -5.875 3 C-6.96554687 3.556875 -8.05609375 4.11375 -9.1796875 4.6875 C-12 6 -12 6 -14 6 C-14.33 4.68 -14.66 3.36 -15 2 C-9.375 0.875 -9.375 0.875 -6 2 C-6 1.34 -6 0.68 -6 0 C-3.50907189 -1.24546405 -2.58919267 -0.7767578 0 0 Z " fill="#EBE8E7" transform="translate(264,48)"/>
<path d="M0 0 C2.31 0.33 4.62 0.66 7 1 C5.63016497 4.16115776 5.0109362 4.9927092 2 7 C0.68 7 -0.64 7 -2 7 C-2 6.01 -2 5.02 -2 4 C-1.34 4 -0.68 4 0 4 C0 2.68 0 1.36 0 0 Z " fill="#E1DCDC" transform="translate(407,305)"/>
<path d="M0 0 C0 0.66 0 1.32 0 2 C-1.55780332 2.67756882 -3.12150096 3.34159457 -4.6875 4 C-5.99267578 4.556875 -5.99267578 4.556875 -7.32421875 5.125 C-10.0572002 6.01870488 -12.14700934 6.16449676 -15 6 C-15 5.34 -15 4.68 -15 4 C-14.319375 3.896875 -13.63875 3.79375 -12.9375 3.6875 C-9.82115475 3.04910275 -9.82115475 3.04910275 -6.375 1.4375 C-3 0 -3 0 0 0 Z " fill="#D7CECF" transform="translate(396,365)"/>
<path d="M0 0 C1.53445094 3.06890187 0.54984289 5.70094266 0 9 C-0.66 9 -1.32 9 -2 9 C-2.66 9.66 -3.32 10.32 -4 11 C-4 8.03 -4 5.06 -4 2 C-2.68 1.34 -1.36 0.68 0 0 Z " fill="#E2DCDD" transform="translate(323,276)"/>
<path d="M0 0 C0.66 0 1.32 0 2 0 C2.53469802 1.72492978 3.05219175 3.455198 3.5625 5.1875 C3.85253906 6.15042969 4.14257812 7.11335938 4.44140625 8.10546875 C5.02461026 11.12752588 4.81178385 13.05929955 4 16 C2.06757715 12.65479742 1.4536147 9.55232518 0.875 5.75 C0.70742188 4.67234375 0.53984375 3.5946875 0.3671875 2.484375 C0.24601562 1.66453125 0.12484375 0.8446875 0 0 Z " fill="#D7CCCC" transform="translate(450,254)"/>
<path d="M0 0 C0.99 0.33 1.98 0.66 3 1 C3 1.66 3 2.32 3 3 C-5.8 4.6 -5.8 4.6 -9 3 C-9 2.34 -9 1.68 -9 1 C-6.01002175 -0.49498913 -3.29957225 -0.11577446 0 0 Z " fill="#E7E3E3" transform="translate(377,185)"/>
<path d="M0 0 C0.99 0.33 1.98 0.66 3 1 C1.33333333 2.66666667 -0.33333333 4.33333333 -2 6 C-2.86625 6.886875 -3.7325 7.77375 -4.625 8.6875 C-7 11 -7 11 -10 13 C-8.16490101 7.32787586 -4.97304587 3.31536392 0 0 Z " fill="#DEDADA" transform="translate(294,56)"/>
<path d="M0 0 C1.41750563 0.11509661 2.83401169 0.24253658 4.25 0.375 C5.03890625 0.44460937 5.8278125 0.51421875 6.640625 0.5859375 C9.085877 1.01507113 10.84836903 1.78600638 13 3 C10 5 10 5 7.3125 4.625 C6.549375 4.41875 5.78625 4.2125 5 4 C5 3.34 5 2.68 5 2 C3.35 2 1.7 2 0 2 C0 1.34 0 0.68 0 0 Z " fill="#D4CFD0" transform="translate(364,2)"/>
<path d="M0 0 C0 0.66 0 1.32 0 2 C-4.17737474 3.59138085 -7.53160785 4.21278058 -12 4 C-12.33 3.01 -12.66 2.02 -13 1 C-11.39602723 0.83147753 -9.7918131 0.66525114 -8.1875 0.5 C-7.29417969 0.4071875 -6.40085937 0.314375 -5.48046875 0.21875 C-3 0 -3 0 0 0 Z " fill="#BEB7BB" transform="translate(392,282)"/>
<path d="M0 0 C0.99 0 1.98 0 3 0 C4.125 7.75 4.125 7.75 3 10 C2.01 10 1.02 10 0 10 C0 6.7 0 3.4 0 0 Z " fill="#FDFAFA" transform="translate(320,254)"/>
<path d="M0 0 C3.31658613 4.9748792 4.38479461 11.03568353 4 17 C1.35634579 13.03451868 -0.20681289 10.07997049 -0.6875 5.3125 C-0.77386719 4.52488281 -0.86023438 3.73726562 -0.94921875 2.92578125 C-0.96597656 2.29027344 -0.98273438 1.65476563 -1 1 C-0.67 0.67 -0.34 0.34 0 0 Z " fill="#D9D3D4" transform="translate(177,217)"/>
<path d="M0 0 C2.64 0 5.28 0 8 0 C8.33 0.99 8.66 1.98 9 3 C9.66 3 10.32 3 11 3 C10.67 3.99 10.34 4.98 10 6 C5.05 4.02 5.05 4.02 0 2 C0 1.34 0 0.68 0 0 Z " fill="#D7D0D3" transform="translate(375,37)"/>
<path d="M0 0 C0 0.99 0 1.98 0 3 C-4.95 4.485 -4.95 4.485 -10 6 C-10 3 -10 3 -8.375 1.3125 C-5.41801336 -0.32162419 -3.32820054 -0.22692276 0 0 Z " fill="#DCD4D5" transform="translate(274,41)"/>
<path d="M0 0 C5.88201731 2.71477722 10.56080905 6.29968017 15 11 C10.83846364 10.44512849 8.40462348 8.13719846 5.25 5.5 C4.26515625 4.6853125 3.2803125 3.870625 2.265625 3.03125 C1.51796875 2.3609375 0.7703125 1.690625 0 1 C0 0.67 0 0.34 0 0 Z " fill="#D8D1D2" transform="translate(225,290)"/>
<path d="M0 0 C0.66 0 1.32 0 2 0 C2.99 4.95 3.98 9.9 5 15 C4.34 15 3.68 15 3 15 C1.094753 9.89665983 -0.42589023 5.53657294 0 0 Z " fill="#D1CDCE" transform="translate(146,227)"/>
<path d="M0 0 C0.66 0.33 1.32 0.66 2 1 C2.19294408 5.82360189 1.75747614 9.49646738 0 14 C-0.66 14 -1.32 14 -2 14 C-2 13.01 -2 12.02 -2 11 C-1.34 11 -0.68 11 0 11 C-0.185625 10.113125 -0.37125 9.22625 -0.5625 8.3125 C-0.98042484 5.14821189 -0.80777742 3.05160358 0 0 Z " fill="#C5BBBC" transform="translate(518,207)"/>
<path d="M0 0 C4.16486198 -0.30017023 6.65015727 0.54675054 10.3125 2.5 C11.19550781 2.9640625 12.07851563 3.428125 12.98828125 3.90625 C13.65214844 4.2671875 14.31601562 4.628125 15 5 C15 5.66 15 6.32 15 7 C10 5.33333333 5 3.66666667 0 2 C0 1.34 0 0.68 0 0 Z " fill="#C8C1C2" transform="translate(381,188)"/>
<path d="M0 0 C3.46124816 1.15374939 3.88312583 1.87701971 5.75 4.875 C6.19859375 5.57367188 6.6471875 6.27234375 7.109375 6.9921875 C8 9 8 9 7 12 C6.67 11.34 6.34 10.68 6 10 C5.34 10 4.68 10 4 10 C2.68 6.7 1.36 3.4 0 0 Z " fill="#DAD5D6" transform="translate(299,154)"/>
<path d="M0 0 C0.66 0 1.32 0 2 0 C3.38226016 2.76452033 3.09525387 5.0461363 3.0625 8.125 C3.05347656 9.22070312 3.04445313 10.31640625 3.03515625 11.4453125 C3.02355469 12.28835937 3.01195312 13.13140625 3 14 C2.01 14.495 2.01 14.495 1 15 C1 12.36 1 9.72 1 7 C0.34 6.67 -0.32 6.34 -1 6 C-0.34 5.34 0.32 4.68 1 4 C0.6814823 1.89179203 0.6814823 1.89179203 0 0 Z " fill="#D4D0D1" transform="translate(386,119)"/>
<path d="M0 0 C3.2645028 3.2645028 3.93236055 7.41047299 4.125 11.9375 C4.08375 12.618125 4.0425 13.29875 4 14 C3.01 14.495 3.01 14.495 2 15 C1.855625 14.236875 1.71125 13.47375 1.5625 12.6875 C1.0367406 9.91827092 1.0367406 9.91827092 0 7 C-0.03954234 4.66700175 -0.04401732 2.33291811 0 0 Z " fill="#D8D2D3" transform="translate(383,78)"/>
<path d="M0 0 C0.66 0 1.32 0 2 0 C0.50198648 3.61477175 -1.57537417 5.68620463 -4.5 8.25 C-5.2940625 8.95640625 -6.088125 9.6628125 -6.90625 10.390625 C-9 12 -9 12 -11 12 C-9.79304978 8.37914935 -8.53198219 7.6587148 -5.5 5.4375 C-2.2216853 3.168506 -2.2216853 3.168506 0 0 Z " fill="#E7E3E3" transform="translate(464,320)"/>
<path d="M0 0 C1.32 0.33 2.64 0.66 4 1 C4 3.31 4 5.62 4 8 C2.68 8.33 1.36 8.66 0 9 C0 6.03 0 3.06 0 0 Z " fill="#DCD3D3" transform="translate(320,264)"/>
<path d="M0 0 C4.75481646 0.57634139 7.97048212 2.55068521 12 5 C12 5.33 12 5.66 12 6 C5.375 5.25 5.375 5.25 2 3 C2 2.34 2 1.68 2 1 C1.34 0.67 0.68 0.34 0 0 Z " fill="#E8E1E4" transform="translate(394,192)"/>
<path d="M0 0 C2.31 0 4.62 0 7 0 C7.33 1.32 7.66 2.64 8 4 C9.32 4.33 10.64 4.66 12 5 C11.67 5.99 11.34 6.98 11 8 C9.16399255 6.85845641 7.33125195 5.71165684 5.5 4.5625 C4.4790625 3.92441406 3.458125 3.28632812 2.40625 2.62890625 C1.6121875 2.09136719 0.818125 1.55382813 0 1 C0 0.67 0 0.34 0 0 Z " fill="#E3DFDF" transform="translate(407,51)"/>
<path d="M0 0 C0.99 0.33 1.98 0.66 3 1 C1.625 2.5 1.625 2.5 0 4 C-0.66 4 -1.32 4 -2 4 C-2 4.66 -2 5.32 -2 6 C-3.32 6.33 -4.64 6.66 -6 7 C-6 7.66 -6 8.32 -6 9 C-6.66 9 -7.32 9 -8 9 C-8 8.01 -8 7.02 -8 6 C-6.35546875 4.359375 -6.35546875 4.359375 -4.1875 2.75 C-3.47980469 2.20859375 -2.77210938 1.6671875 -2.04296875 1.109375 C-1.36878906 0.74328125 -0.69460938 0.3771875 0 0 Z " fill="#DCD5D8" transform="translate(428,309)"/>
<path d="M0 0 C0.66 0.33 1.32 0.66 2 1 C0.66749209 4.5875213 -0.830717 7.8364623 -3 11 C-3.66 11 -4.32 11 -5 11 C-4.34 8.36 -3.68 5.72 -3 3 C-2.34 3 -1.68 3 -1 3 C-0.67 2.01 -0.34 1.02 0 0 Z " fill="#D4CFCF" transform="translate(378,147)"/>
<path d="M0 0 C2.96659857 3.55991828 5.381348 7.65222543 7 12 C6.67 12.66 6.34 13.32 6 14 C4.98576166 12.61447798 3.98912998 11.21605712 3 9.8125 C2.443125 9.03519531 1.88625 8.25789062 1.3125 7.45703125 C-0.151369 4.71663363 -0.26080213 3.05899163 0 0 Z " fill="#CAC5C6" transform="translate(274,132)"/>
<path d="M0 0 C0.66 0 1.32 0 2 0 C2.66 4.29 3.32 8.58 4 13 C3.34 13 2.68 13 2 13 C0.54815522 8.46298506 -0.23509196 4.81938524 0 0 Z " fill="#C0B7B8" transform="translate(143,212)"/>
<path d="M0 0 C5.65394631 -0.34615998 9.03006806 0.56574762 14 3 C14 3.66 14 4.32 14 5 C12.22739369 4.54857225 10.4569632 4.08859477 8.6875 3.625 C7.20830078 3.24214844 7.20830078 3.24214844 5.69921875 2.8515625 C3 2 3 2 0 0 Z " fill="#DBD4D5" transform="translate(378,6)"/>
<path d="M0 0 C-1 3 -1 3 -3.8125 4.625 C-6.25800018 5.67992164 -8.40235776 6.50045341 -11 7 C-11 6.34 -11 5.68 -11 5 C-9.54462432 4.16151196 -8.08559627 3.32936066 -6.625 2.5 C-5.81289063 2.0359375 -5.00078125 1.571875 -4.1640625 1.09375 C-2 0 -2 0 0 0 Z " fill="#DEDADA" transform="translate(412,322)"/>
<path d="M0 0 C1.14926266 0.95421808 2.29430541 1.91352045 3.4375 2.875 C4.07558594 3.40867187 4.71367187 3.94234375 5.37109375 4.4921875 C7 6 7 6 8 8 C7.01 9.485 7.01 9.485 6 11 C4.9944239 9.54550599 3.99569565 8.08627557 3 6.625 C2.443125 5.81289063 1.88625 5.00078125 1.3125 4.1640625 C0 2 0 2 0 0 Z " fill="#E7E1E2" transform="translate(168,283)"/>
<path d="M0 0 C0.33 0 0.66 0 1 0 C1 2.97 1 5.94 1 9 C0.01 9 -0.98 9 -2 9 C-2.125 5.625 -2.125 5.625 -2 2 C-1.34 1.34 -0.68 0.68 0 0 Z " fill="#CDC7C9" transform="translate(341,276)"/>
<path d="M0 0 C0.99 0.33 1.98 0.66 3 1 C2.67 1.94875 2.34 2.8975 2 3.875 C0.89840809 6.77062452 0.89840809 6.77062452 1 9 C0.01 9 -0.98 9 -2 9 C-1.125 2.25 -1.125 2.25 0 0 Z " fill="#D9D2D5" transform="translate(211,250)"/>
<path d="M0 0 C0.33 0.66 0.66 1.32 1 2 C0.00390625 4.3828125 0.00390625 4.3828125 -1.4375 7.125 C-1.91058594 8.03507813 -2.38367188 8.94515625 -2.87109375 9.8828125 C-3.24363281 10.58148438 -3.61617187 11.28015625 -4 12 C-4.33 12 -4.66 12 -5 12 C-5.58305225 8.15185513 -4.7002883 6.23691365 -2.5 3.1875 C-1.67780256 2.11635945 -0.84795951 1.0508641 0 0 Z " fill="#D2CECF" transform="translate(218,237)"/>
<path d="M0 0 C0.66 0.33 1.32 0.66 2 1 C1.55149342 2.81495662 1.09090429 4.62693134 0.625 6.4375 C0.24214844 7.95150391 0.24214844 7.95150391 -0.1484375 9.49609375 C-1 12 -1 12 -3 13 C-2.69128878 11.20767663 -2.37790936 9.41615679 -2.0625 7.625 C-1.88847656 6.62726563 -1.71445312 5.62953125 -1.53515625 4.6015625 C-1 2 -1 2 0 0 Z " fill="#DAD3D3" transform="translate(483,223)"/>
<path d="M0 0 C3.63 0.33 7.26 0.66 11 1 C10.67 1.66 10.34 2.32 10 3 C6.7 3 3.4 3 0 3 C0 2.01 0 1.02 0 0 Z " fill="#EEE9E9" transform="translate(334,328)"/>
<path d="M0 0 C4.16138263 -0.08159574 7.9472484 0.01751476 12 1 C12 1.66 12 2.32 12 3 C10.18674449 2.88648483 8.37436643 2.75887039 6.5625 2.625 C5.04849609 2.52058594 5.04849609 2.52058594 3.50390625 2.4140625 C2.67761719 2.27742188 1.85132813 2.14078125 1 2 C0.67 1.34 0.34 0.68 0 0 Z " fill="#D7D1D1" transform="translate(302,327)"/>
<path d="M0 0 C2 2 2 2 2 5 C1.34 5 0.68 5 0 5 C0 7.97 0 10.94 0 14 C-0.66 14 -1.32 14 -2 14 C-1.85866501 12.22880197 -1.71176792 10.45804713 -1.5625 8.6875 C-1.48128906 7.70136719 -1.40007812 6.71523438 -1.31640625 5.69921875 C-1 3 -1 3 0 0 Z " fill="#FDFAFA" transform="translate(320,284)"/>
<path d="M0 0 C0.99 0.33 1.98 0.66 3 1 C3.94921875 3.06640625 3.94921875 3.06640625 4.6875 5.5625 C4.93886719 6.38878906 5.19023437 7.21507812 5.44921875 8.06640625 C5.63097656 8.70449219 5.81273437 9.34257812 6 10 C5.34 10 4.68 10 4 10 C3.32845067 8.71086513 2.66291141 7.41859796 2 6.125 C1.62875 5.40570313 1.2575 4.68640625 0.875 3.9453125 C0 2 0 2 0 0 Z " fill="#DEDBDB" transform="translate(189,256)"/>
<path d="M0 0 C0.99 0.33 1.98 0.66 3 1 C2.34 1 1.68 1 1 1 C0.87625 1.598125 0.7525 2.19625 0.625 2.8125 C0 5 0 5 -2 8 C-2.66 8 -3.32 8 -4 8 C-4 8.66 -4 9.32 -4 10 C-4.66 10 -5.32 10 -6 10 C-4.34832443 6.4213696 -2.21713508 3.25179812 0 0 Z " fill="#D9D2D4" transform="translate(183,69)"/>
<path d="M0 0 C3.84814487 -0.58305225 5.76308635 0.2997117 8.8125 2.5 C9.88364055 3.32219744 10.9491359 4.15204049 12 5 C11.67 5.66 11.34 6.32 11 7 C7.37 5.02 3.74 3.04 0 1 C0 0.67 0 0.34 0 0 Z " fill="#E9DEE0" transform="translate(231,349)"/>
<path d="M0 0 C0.99 0.33 1.98 0.66 3 1 C0.525 5.455 0.525 5.455 -2 10 C-3.39195915 5.82412255 -1.82323219 3.86525224 0 0 Z " fill="#CBC8C7" transform="translate(477,242)"/>
<path d="M0 0 C0.33 0.66 0.66 1.32 1 2 C1.99 2 2.98 2 4 2 C4.33 3.98 4.66 5.96 5 8 C3.0625 7.375 3.0625 7.375 1 6 C0.25 2.875 0.25 2.875 0 0 Z " fill="#E7E3E3" transform="translate(319,223)"/>
<path d="M0 0 C-1.34882814 4.04648443 -3.34826069 4.95502599 -7 7 C-7.99 6.67 -8.98 6.34 -10 6 C-9.01 5.67 -8.02 5.34 -7 5 C-7 4.34 -7 3.68 -7 3 C-2.61538462 0 -2.61538462 0 0 0 Z " fill="#D1CACA" transform="translate(356,183)"/>
<path d="M0 0 C3.32302186 1.56377499 5.56184007 3.21353151 8 6 C8 6.66 8 7.32 8 8 C8.66 8.33 9.32 8.66 10 9 C7.27425729 8.62669176 6.19177915 8.20805399 4.296875 6.15234375 C3.53117187 5.05599609 3.53117187 5.05599609 2.75 3.9375 C2.22921875 3.20402344 1.7084375 2.47054687 1.171875 1.71484375 C0.78515625 1.14894531 0.3984375 0.58304688 0 0 Z " fill="#C9C2C2" transform="translate(299,177)"/>
<path d="M0 0 C5.75 1.75 5.75 1.75 8 4 C7.34 4.66 6.68 5.32 6 6 C4.02 5.01 2.04 4.02 0 3 C0 2.01 0 1.02 0 0 Z " fill="#DED9DA" transform="translate(318,176)"/>
<path d="M0 0 C3.39417765 3.12621626 5.6062718 5.56541027 7 10 C2.57320993 8.52440331 2.08567304 6.09942632 0 2 C0 1.34 0 0.68 0 0 Z " fill="#CECACA" transform="translate(292,166)"/>
<path d="M0 0 C0.66 0 1.32 0 2 0 C3.3271261 3.9813783 3.06915913 7.85045227 3 12 C0.97649676 8.96474514 0.67875982 7.80573798 0.375 4.3125 C0.30023437 3.50425781 0.22546875 2.69601563 0.1484375 1.86328125 C0.09945312 1.24839844 0.05046875 0.63351563 0 0 Z " fill="#CAC5C5" transform="translate(514,146)"/>
<path d="M0 0 C0.99 0 1.98 0 3 0 C2.855625 0.825 2.71125 1.65 2.5625 2.5 C1.94746848 6.32686278 1.46439363 10.15216707 1 14 C0.67 14 0.34 14 0 14 C0 9.38 0 4.76 0 0 Z " fill="#CBC2C2" transform="translate(273,116)"/>
<path d="M0 0 C7.75 1.875 7.75 1.875 10 3 C10 3.66 10 4.32 10 5 C2.25 3.375 2.25 3.375 0 0 Z " fill="#CEC6C7" transform="translate(266,365)"/>
<path d="M0 0 C4.35535069 1.16142685 6.64619703 2.07699505 9 6 C5.59687262 4.94124926 2.98646769 3.99097846 0 2 C0 1.34 0 0.68 0 0 Z " fill="#C5C2C3" transform="translate(247,320)"/>
<path d="M0 0 C2.94721162 2.74395564 5.19168608 5.38337216 7 9 C6.67 9.66 6.34 10.32 6 11 C5.34 9.68 4.68 8.36 4 7 C3.34 7 2.68 7 2 7 C0.5393715 4.35261084 0 3.10551666 0 0 Z " fill="#C9C2C3" transform="translate(195,266)"/>
<path d="M0 0 C2 2 2 2 2.1953125 4.3828125 C2.17210937 5.28773438 2.14890625 6.19265625 2.125 7.125 C2.10695313 8.03507812 2.08890625 8.94515625 2.0703125 9.8828125 C2.03550781 10.93082031 2.03550781 10.93082031 2 12 C1.67 12 1.34 12 1 12 C1 10.02 1 8.04 1 6 C0.34 6 -0.32 6 -1 6 C-1.042721 4.33388095 -1.04063832 2.66617115 -1 1 C-0.67 0.67 -0.34 0.34 0 0 Z " fill="#E2DEDE" transform="translate(322,248)"/>
<path d="M0 0 C0.66 0 1.32 0 2 0 C1.34 2.97 0.68 5.94 0 9 C-0.66 9 -1.32 9 -2 9 C-1.125 2.25 -1.125 2.25 0 0 Z " fill="#D0CAC8" transform="translate(360,243)"/>
<path d="M0 0 C2.2432954 2.88423694 4.36318083 5.72636167 6 9 C5.578125 11.15625 5.578125 11.15625 5 13 C4.15930585 11.39967863 3.32768495 9.79458829 2.5 8.1875 C1.80390625 6.84751953 1.80390625 6.84751953 1.09375 5.48046875 C0 3 0 3 0 0 Z " fill="#D1CACB" transform="translate(443,236)"/>
<path d="M0 0 C0.66 0.33 1.32 0.66 2 1 C1.01 1.33 0.02 1.66 -1 2 C-2.17082878 4.92914165 -2.17082878 4.92914165 -3 8 C-3.33 8.66 -3.66 9.32 -4 10 C-4.66 10 -5.32 10 -6 10 C-5.35389319 6.51102321 -3.98128683 3.93230451 -2 1 C-1.34 0.67 -0.68 0.34 0 0 Z " fill="#D5D0D0" transform="translate(226,224)"/>
<path d="M0 0 C1.98 1.65 3.96 3.3 6 5 C5.67 5.66 5.34 6.32 5 7 C1.73539027 5.19587357 0.11070205 4.16605307 -2 1 C-1.34 0.67 -0.68 0.34 0 0 Z " fill="#CDC8C9" transform="translate(311,169)"/>
<path d="M0 0 C0.99 0.495 0.99 0.495 2 1 C2 1.66 2 2.32 2 3 C2.66 3 3.32 3 4 3 C4 4.98 4 6.96 4 9 C3.34 9 2.68 9 2 9 C0.50178941 5.62902617 0 3.79557881 0 0 Z " fill="#CCC7C7" transform="translate(368,108)"/>
<path d="M0 0 C0.99 0.33 1.98 0.66 3 1 C2.67 2.32 2.34 3.64 2 5 C0.02 5 -1.96 5 -4 5 C-3 2 -3 2 0 0 Z " fill="#E0DCDC" transform="translate(237,23)"/>
<path d="M0 0 C0 0.66 0 1.32 0 2 C-6.625 5.125 -6.625 5.125 -10 4 C-9.34 4 -8.68 4 -8 4 C-8 3.34 -8 2.68 -8 2 C-5.09399739 0.74335022 -3.20395416 0 0 0 Z " fill="#CAC5C5" transform="translate(276,7)"/>
<path d="M0 0 C0.515625 0.2475 1.03125 0.495 1.5625 0.75 C-4.8375 4.81153846 -4.8375 4.81153846 -7.875 4.5 C-8.390625 4.2525 -8.90625 4.005 -9.4375 3.75 C-3.0375 -0.31153846 -3.0375 -0.31153846 0 0 Z " fill="#D7CFD1" transform="translate(410.4375,359.25)"/>
<path d="M0 0 C0 0.66 0 1.32 0 2 C-6.625 5.125 -6.625 5.125 -10 4 C-3.375 0 -3.375 0 0 0 Z " fill="#C9C1C4" transform="translate(398,315)"/>
<path d="M0 0 C0.33 0 0.66 0 1 0 C0.125 7.75 0.125 7.75 -1 10 C-1.66 10 -2.32 10 -3 10 C-2.69201674 8.51988629 -2.378482 7.04092675 -2.0625 5.5625 C-1.88847656 4.73878906 -1.71445312 3.91507813 -1.53515625 3.06640625 C-1 1 -1 1 0 0 Z " fill="#C8C3C3" transform="translate(510,244)"/>
<path d="M0 0 C2 1 2 1 2.6328125 2.84765625 C2.79523438 3.57855469 2.95765625 4.30945313 3.125 5.0625 C3.29257813 5.79597656 3.46015625 6.52945313 3.6328125 7.28515625 C3.75398437 7.85105469 3.87515625 8.41695312 4 9 C3.01 9.495 3.01 9.495 2 10 C1.87625 9.195625 1.7525 8.39125 1.625 7.5625 C1.315625 6.2940625 1.315625 6.2940625 1 5 C0.34 4.67 -0.32 4.34 -1 4 C-0.67 2.68 -0.34 1.36 0 0 Z " fill="#D5CACA" transform="translate(181,235)"/>
<path d="M0 0 C3 1 3 1 4 3 C4.13415472 5.6723621 4.04318541 8.32250488 4 11 C3.67 11 3.34 11 3 11 C2.01 7.37 1.02 3.74 0 0 Z " fill="#CFCACA" transform="translate(340,211)"/>
<path d="M0 0 C0.33 0 0.66 0 1 0 C0.67 3.3 0.34 6.6 0 10 C-0.66 10 -1.32 10 -2 10 C-3.39195915 5.82412255 -1.82323219 3.86525224 0 0 Z " fill="#E5DEE0" transform="translate(179,146)"/>
<path d="M0 0 C0.33 0 0.66 0 1 0 C1 1.65 1 3.3 1 5 C1.66 5.33 2.32 5.66 3 6 C2.34 7.32 1.68 8.64 1 10 C0.34 10 -0.32 10 -1 10 C-1.125 3.375 -1.125 3.375 0 0 Z " fill="#DFD8D9" transform="translate(147,141)"/>
<path d="M0 0 C1.21386936 3.64160808 0.6674695 4.33165469 -0.9375 7.6875 C-1.31777344 8.49574219 -1.69804687 9.30398437 -2.08984375 10.13671875 C-2.39019531 10.75160156 -2.69054687 11.36648437 -3 12 C-3.33 12 -3.66 12 -4 12 C-3.5317879 7.22423661 -2.75668002 3.95523655 0 0 Z " fill="#CAC6C6" transform="translate(187,125)"/>
<path d="M0 0 C4.04648443 1.34882814 4.95502599 3.34826069 7 7 C6.67 7.99 6.34 8.98 6 10 C4.99421411 8.71283353 3.99553202 7.42011342 3 6.125 C2.443125 5.40570313 1.88625 4.68640625 1.3125 3.9453125 C0 2 0 2 0 0 Z " fill="#C6BEBF" transform="translate(374,65)"/>
<path d="M0 0 C0.99 0 1.98 0 3 0 C2.67 0.99 2.34 1.98 2 3 C-0.64 3 -3.28 3 -6 3 C-6 2.34 -6 1.68 -6 1 C-4.7934375 1.0309375 -4.7934375 1.0309375 -3.5625 1.0625 C-1.06645115 1.29633621 -1.06645115 1.29633621 0 0 Z " fill="#B9AFB6" transform="translate(355,374)"/>
<path d="M0 0 C0.99 0.33 1.98 0.66 3 1 C2.360625 1.78375 1.72125 2.5675 1.0625 3.375 C-0.98142313 5.79539281 -0.98142313 5.79539281 -2 8 C-2.66 8 -3.32 8 -4 8 C-3.40072174 4.64404172 -2.15377564 2.62198774 0 0 Z " fill="#DCD3D3" transform="translate(233,214)"/>
<path d="M0 0 C1.9375 0.6875 1.9375 0.6875 4 2 C4.75 4.625 4.75 4.625 5 7 C4.01 7 3.02 7 2 7 C1.34 4.69 0.68 2.38 0 0 Z " fill="#E3DEDF" transform="translate(285,152)"/>
<path d="M0 0 C0.99 0 1.98 0 3 0 C2.54917531 1.46067199 2.08906463 2.91848032 1.625 4.375 C1.36976563 5.18710938 1.11453125 5.99921875 0.8515625 6.8359375 C0 9 0 9 -2 11 C-1.34 7.37 -0.68 3.74 0 0 Z " fill="#BDB4B6" transform="translate(150,130)"/>
<path d="M0 0 C4.43090471 1.20842856 6.98112756 2.51668565 10 6 C5.16743695 5.58578031 3.17320782 3.53586014 0 0 Z " fill="#E2D9DA" transform="translate(241,302)"/>
<path d="M0 0 C0.99 0.33 1.98 0.66 3 1 C3 1.66 3 2.32 3 3 C3.66 3 4.32 3 5 3 C5.33 3.99 5.66 4.98 6 6 C4.35 5.67 2.7 5.34 1 5 C0.67 3.35 0.34 1.7 0 0 Z " fill="#DAD4D5" transform="translate(221,299)"/>
<path d="M0 0 C3.41158256 1.13719419 4.11854601 2.04342944 6 5 C6 5.66 6 6.32 6 7 C3.00675737 5.9024777 2.15389099 5.32317108 0.75 2.375 C0.5025 1.59125 0.255 0.8075 0 0 Z " fill="#D6CCCE" transform="translate(207,284)"/>
<path d="M0 0 C2.52259061 1.97420135 2.9929808 2.96745642 3.6875 6.1875 C3.790625 7.115625 3.89375 8.04375 4 9 C3.34 9 2.68 9 2 9 C0.50178941 5.62902617 0 3.79557881 0 0 Z " fill="#C5BDBD" transform="translate(289,205)"/>
<path d="M0 0 C-6.75 4 -6.75 4 -9 4 C-8 1 -8 1 -6.1875 -0.25 C-3.66056586 -1.11637742 -2.47778006 -0.88492145 0 0 Z " fill="#C3BEBE" transform="translate(275,191)"/>
<path d="M0 0 C0.66 0.99 1.32 1.98 2 3 C-0.17424117 5.50037734 -1.73045798 6.43628586 -5 7 C-5 6.34 -5 5.68 -5 5 C-3.35 4.34 -1.7 3.68 0 3 C0 2.01 0 1.02 0 0 Z " fill="#ECE8E8" transform="translate(430,345)"/>
<path d="M0 0 C0 0.99 0 1.98 0 3 C-2.31 4.32 -4.62 5.64 -7 7 C-5.54744301 3.17053157 -3.57104439 1.87949705 0 0 Z " fill="#D0CBCC" transform="translate(425,298)"/>
<path d="M0 0 C0.66 0.33 1.32 0.66 2 1 C1.34 2.98 0.68 4.96 0 7 C-0.99 6.67 -1.98 6.34 -3 6 C-2.67 4.68 -2.34 3.36 -2 2 C-1.34 2 -0.68 2 0 2 C0 1.34 0 0.68 0 0 Z " fill="#E1D7D9" transform="translate(347,289)"/>
<path d="M0 0 C0 0.66 0 1.32 0 2 C-2.64738916 3.4606285 -3.89448334 4 -7 4 C-6.67 3.01 -6.34 2.02 -6 1 C-4 0 -4 0 0 0 Z " fill="#CCC5C7" transform="translate(402,284)"/>
<path d="M0 0 C1.98 1.65 3.96 3.3 6 5 C5.67 6.32 5.34 7.64 5 9 C4.16094435 7.87926138 3.32892169 6.75325453 2.5 5.625 C2.0359375 4.99851563 1.571875 4.37203125 1.09375 3.7265625 C0 2 0 2 0 0 Z " fill="#DCD4D6" transform="translate(430,218)"/>
<path d="M0 0 C-0.6875 1.9375 -0.6875 1.9375 -2 4 C-4.625 4.75 -4.625 4.75 -7 5 C-5.53924541 2.07849082 -3.3640735 0 0 0 Z " fill="#DFDCDC" transform="translate(336,104)"/>
<path d="M0 0 C0.99 0 1.98 0 3 0 C1.375 5.75 1.375 5.75 -2 8 C-1.34 5.36 -0.68 2.72 0 0 Z " fill="#E0DDDC" transform="translate(197,102)"/>
<path d="M0 0 C1.31602523 0.61754259 2.62773556 1.24428742 3.9375 1.875 C4.66839844 2.22304688 5.39929688 2.57109375 6.15234375 2.9296875 C8 4 8 4 9 6 C5.625 5.25 5.625 5.25 2 4 C0.7734375 1.921875 0.7734375 1.921875 0 0 Z " fill="#D4CBCB" transform="translate(388,41)"/>
<path d="M0 0 C4.35535069 1.16142685 6.64619703 2.07699505 9 6 C4.75177626 5.52797514 2.80010291 3.03344482 0 0 Z " fill="#DAD3D3" transform="translate(434,31)"/>
</svg>
